<?xml version="1.0" encoding="UTF-8"?>
<svg version="1.1" xmlns="http://www.w3.org/2000/svg" width="502" height="600">
<path d="M0 0 C1.96445976 -0.00214995 3.92891826 -0.00603371 5.89337158 -0.01150513 C11.19535415 -0.02114201 16.49699635 -0.00596368 21.7989378 0.01440096 C27.37232206 0.03207566 32.94569742 0.02844478 38.519104 0.02767944 C47.87998077 0.02954856 57.24072735 0.04685552 66.6015625 0.07421875 C77.38571572 0.10562845 88.16972636 0.11621589 98.95392203 0.11474764 C110.48374891 0.11339047 122.01352167 0.12731105 133.5433321 0.14564085 C136.8426694 0.14987963 140.14199782 0.15131996 143.44133759 0.15211868 C148.65189974 0.15414658 153.86234496 0.1665089 159.07286835 0.18645096 C160.97177411 0.19223052 162.87069335 0.19476624 164.76960754 0.19359589 C176.41573654 0.18913913 187.71763276 0.84958552 199.25097656 2.48583984 C200.16846554 2.61244806 201.08595451 2.73905628 202.03124619 2.86950111 C238.09844902 8.03375791 273.44160563 24.2491253 301.74707031 46.77099609 C303.80969754 48.40961136 305.74549185 49.78017758 308.02050781 51.13427734 C310.36170176 52.55293427 311.7639081 53.94718886 313.50097656 56.04833984 C316.26700545 59.32278543 319.07159026 62.54884144 321.93847656 65.73583984 C322.66421875 66.54537109 323.38996094 67.35490234 324.13769531 68.18896484 C325.4818916 69.64993974 326.86198086 71.07925285 328.28613281 72.46240234 C330.46162834 74.70277348 332.21341616 77.05172559 334.00097656 79.61083984 C334.61457031 80.47966797 335.22816406 81.34849609 335.86035156 82.24365234 C337.25097656 84.48583984 337.25097656 84.48583984 337.25097656 86.48583984 C337.91097656 86.48583984 338.57097656 86.48583984 339.25097656 86.48583984 C339.64929688 87.22189453 340.04761719 87.95794922 340.45800781 88.71630859 C340.9878125 89.69212891 341.51761719 90.66794922 342.06347656 91.67333984 C342.58554687 92.63626953 343.10761719 93.59919922 343.64550781 94.59130859 C346.48902193 99.87457619 346.48902193 99.87457619 350.25097656 104.48583984 C349.92097656 105.14583984 349.59097656 105.80583984 349.25097656 106.48583984 C349.91097656 106.81583984 350.57097656 107.14583984 351.25097656 107.48583984 C352.37871987 109.93415304 353.40161117 112.35266482 354.37597656 114.86083984 C354.653125 115.54662109 354.93027344 116.23240234 355.21582031 116.93896484 C356.3960509 119.92733194 357.25097656 122.24481621 357.25097656 125.48583984 C357.91097656 125.48583984 358.57097656 125.48583984 359.25097656 125.48583984 C359.89719697 127.9024036 360.54296661 130.3190863 361.18847656 132.73583984 C361.37087891 133.41775391 361.55328125 134.09966797 361.74121094 134.80224609 C362.24686203 136.69613929 362.74903502 138.59096012 363.25097656 140.48583984 C363.43917969 141.16775391 363.62738281 141.84966797 363.82128906 142.55224609 C364.70827119 146.54366565 365.11711255 150.63421174 365.65332031 154.68505859 C365.85054688 155.60931641 366.04777344 156.53357422 366.25097656 157.48583984 C366.91097656 157.81583984 367.57097656 158.14583984 368.25097656 158.48583984 C367.92097656 158.81583984 367.59097656 159.14583984 367.25097656 159.48583984 C367.5079706 161.84572049 367.82139963 164.17412685 368.16894531 166.52099609 C369.32230412 175.01395434 369.60504797 183.36172098 369.56347656 191.92333984 C369.56265076 192.64975677 369.56182495 193.37617371 369.56097412 194.12460327 C369.47615204 226.81994322 369.47615204 226.81994322 364.25097656 239.48583984 C363.78431053 241.3934396 363.31826474 243.30119884 362.85839844 245.21044922 C357.47440449 265.37878668 348.11659896 285.02516331 334.97753906 301.30224609 C333.07079866 303.45911831 333.07079866 303.45911831 332.25097656 306.48583984 C331.14126837 307.65743561 330.02125346 308.82066926 328.85644531 309.9375 C326.95497243 311.77131098 325.12126896 313.66365394 323.28222656 315.56005859 C314.73166003 324.29673291 306.31494097 332.49120116 296.25097656 339.48583984 C295.64656738 339.90800781 295.0421582 340.33017578 294.41943359 340.76513672 C273.23005145 355.48583984 273.23005145 355.48583984 268.25097656 355.48583984 C267.92097656 356.14583984 267.59097656 356.80583984 267.25097656 357.48583984 C264.78183239 358.61109327 262.34067168 359.6354312 259.81347656 360.61083984 C258.77223633 361.0265625 258.77223633 361.0265625 257.70996094 361.45068359 C252.53184171 363.48583984 252.53184171 363.48583984 250.25097656 363.48583984 C249.92097656 364.14583984 249.59097656 364.80583984 249.25097656 365.48583984 C247.21191406 366.23193359 247.21191406 366.23193359 244.62597656 366.92333984 C241.39538185 367.82329123 238.40332877 368.79455694 235.37597656 370.23583984 C232.25097656 371.48583984 232.25097656 371.48583984 230.33300781 371.38427734 C227.2694232 370.06228023 225.86247595 367.96736593 223.81347656 365.36083984 C223.0284375 364.36826172 222.24339844 363.37568359 221.43457031 362.35302734 C219.70897079 360.0872133 218.01830351 357.8120537 216.37597656 355.48583984 C214.72232373 353.15127114 213.25356296 351.45838745 211.25097656 349.48583984 C210.2015871 348.28420735 209.16050697 347.07528858 208.12597656 345.86083984 C201.23708945 337.21018552 201.23708945 337.21018552 192.25097656 331.48583984 C191.05420263 330.04181574 189.86030031 328.59520311 188.68847656 327.13085938 C186.21287882 324.29788084 183.26950158 322.1471361 180.25097656 319.92333984 C179.22351318 319.16114136 179.22351318 319.16114136 178.17529297 318.38354492 C165.01970109 308.80109481 151.02872287 300.31589066 136.25097656 293.48583984 C136.25097656 292.82583984 136.25097656 292.16583984 136.25097656 291.48583984 C141.57768381 290.90886575 146.82721658 290.4206908 152.18847656 290.54833984 C164.12020835 290.66868872 176.6657609 289.35800789 188.25097656 286.48583984 C188.87431885 286.33526123 189.49766113 286.18468262 190.13989258 286.02954102 C214.21423479 279.82929121 235.721029 266.77354714 248.93847656 245.36083984 C253.41934342 237.77109481 256.6768802 229.90313494 259.25097656 221.48583984 C259.59128906 220.37724609 259.93160156 219.26865234 260.28222656 218.12646484 C264.80074491 199.96871521 263.65639925 179.50414584 258.78320312 161.5546875 C257.9932557 158.48403865 257.40478938 155.37356903 256.80908203 152.26000977 C256.62490723 151.67453369 256.44073242 151.08905762 256.25097656 150.48583984 C255.59097656 150.15583984 254.93097656 149.82583984 254.25097656 149.48583984 C253.57158482 147.49012661 252.90536098 145.48989211 252.25097656 143.48583984 C251.59097656 142.82583984 250.93097656 142.16583984 250.25097656 141.48583984 C249.47753906 139.78427734 249.47753906 139.78427734 248.68847656 138.04833984 C239.60262833 119.50647919 220.23692259 106.99306386 201.25097656 100.48583984 C186.43330614 95.84951843 171.77167048 93.15999722 156.20874023 93.25878906 C154.33298671 93.25842746 154.33298671 93.25842746 152.41933918 93.25805855 C149.08016044 93.25929282 145.74123961 93.26908274 142.40210724 93.28327942 C139.25232886 93.29479101 136.10255565 93.2952122 132.95275879 93.29663086 C123.78131234 93.30706594 114.60989251 93.33498844 105.43847656 93.36083984 C74.65566406 93.42271484 74.65566406 93.42271484 43.25097656 93.48583984 C43.25097656 159.48583984 43.25097656 225.48583984 43.25097656 293.48583984 C52.16097656 294.14583984 61.07097656 294.80583984 70.25097656 295.48583984 C77.9679829 296.69405801 85.60773227 297.92696956 93.25097656 299.48583984 C93.9710791 299.6319873 94.69118164 299.77813477 95.43310547 299.92871094 C105.17454235 301.94475653 105.17454235 301.94475653 108.13061523 303.43066406 C110.2567017 304.4886889 112.36262638 305.29399588 114.60253906 306.07958984 C126.87772366 310.49410211 138.08664308 315.74859507 149.25097656 322.48583984 C150.34539062 323.13939453 151.43980469 323.79294922 152.56738281 324.46630859 C157.13911879 327.28399077 161.37823708 330.22308181 165.36816406 333.81787109 C168.67628055 336.74850541 172.15832194 339.47154294 175.60253906 342.23974609 C178.30720683 344.53352776 180.77070799 346.95206778 183.25097656 349.48583984 C184.21680828 350.44320227 185.18432186 351.39887027 186.15332031 352.35302734 C187.16550341 353.35516273 188.17721147 354.35777811 189.18847656 355.36083984 C189.71626709 355.88387695 190.24405762 356.40691406 190.7878418 356.94580078 C193.61510254 359.77087764 196.29066646 362.62986761 198.81347656 365.73583984 C199.61785156 366.64333984 200.42222656 367.55083984 201.25097656 368.48583984 C202.24097656 368.48583984 203.23097656 368.48583984 204.25097656 368.48583984 C204.25097656 369.80583984 204.25097656 371.12583984 204.25097656 372.48583984 C204.91097656 373.14583984 205.57097656 373.80583984 206.25097656 374.48583984 C206.95808334 376.13575567 207.63041645 377.8014624 208.25097656 379.48583984 C208.91097656 379.48583984 209.57097656 379.48583984 210.25097656 379.48583984 C211.44401601 381.19018191 212.55629907 382.951487 213.62597656 384.73583984 C215.88377864 388.49552789 218.14859705 391.40904697 221.25097656 394.48583984 C222.34082031 396.38037109 222.34082031 396.38037109 223.18847656 398.29833984 C224.56097513 401.22378501 226.07642561 403.76405137 228.00097656 406.36083984 C230.25097656 409.48583984 230.25097656 409.48583984 230.25097656 411.48583984 C230.91097656 411.81583984 231.57097656 412.14583984 232.25097656 412.48583984 C233.44626226 414.20244292 234.58412205 415.9593728 235.68847656 417.73583984 C236.2853125 418.68974609 236.88214844 419.64365234 237.49707031 420.62646484 C238.36525391 422.04185547 238.36525391 422.04185547 239.25097656 423.48583984 C240.10369141 424.83935547 240.10369141 424.83935547 240.97363281 426.22021484 C242.25097656 428.48583984 242.25097656 428.48583984 242.25097656 430.48583984 C242.91097656 430.48583984 243.57097656 430.48583984 244.25097656 430.48583984 C244.78722656 431.62021484 245.32347656 432.75458984 245.87597656 433.92333984 C247.84681917 437.86502507 250.14370572 441.45423582 252.62988281 445.08740234 C254.31527736 447.58097404 255.9092506 450.11908784 257.50097656 452.67333984 C260.3876239 457.23256359 263.43110646 461.65635948 266.56347656 466.04833984 C266.9962793 466.65637451 267.42908203 467.26440918 267.875 467.89086914 C269.56297014 470.23893005 271.20253017 472.43739345 273.25097656 474.48583984 C274.09877477 475.78904317 274.92977713 477.10321402 275.75097656 478.42333984 C279.01592871 483.39697702 282.88251295 487.64001221 286.93457031 491.98193359 C288.67081983 493.8587227 290.29815296 495.73013187 291.87597656 497.73583984 C296.05586788 502.575714 300.51315618 506.64662851 306.25097656 509.48583984 C306.95222656 510.20771484 307.65347656 510.92958984 308.37597656 511.67333984 C316.32350253 519.83566381 326.98354412 524.86789418 337.25097656 529.48583984 C337.91097656 529.48583984 338.57097656 529.48583984 339.25097656 529.48583984 C338.59613281 528.97537109 337.94128906 528.46490234 337.26660156 527.93896484 C325.9531126 518.92652448 316.08525343 508.95699193 307.25097656 497.48583984 C306.52370361 496.55723145 306.52370361 496.55723145 305.78173828 495.60986328 C304.21415016 493.60088693 302.66760347 491.57728656 301.12597656 489.54833984 C300.62767334 488.90920654 300.12937012 488.27007324 299.6159668 487.61157227 C298.24316406 485.77099609 298.24316406 485.77099609 296.25097656 482.48583984 C296.62646484 480.28051758 296.62646484 480.28051758 297.25097656 478.48583984 C300.7497141 477.97673562 304.25013257 477.48023384 307.75097656 476.98583984 C308.73324219 476.84275391 309.71550781 476.69966797 310.72753906 476.55224609 C326.02709558 474.41030818 326.02709558 474.41030818 331.25097656 477.48583984 C332.8648736 477.86934013 334.49182174 478.20075364 336.12597656 478.48583984 C339.96869681 479.20208652 343.57345815 480.13096464 347.25097656 481.48583984 C347.25097656 480.82583984 347.25097656 480.16583984 347.25097656 479.48583984 C341.80597656 478.00083984 341.80597656 478.00083984 336.25097656 476.48583984 C336.25097656 475.82583984 336.25097656 475.16583984 336.25097656 474.48583984 C335.538125 474.35177734 334.82527344 474.21771484 334.09082031 474.07958984 C330.36193083 473.29995958 326.73008587 472.24661063 323.06738281 471.20458984 C318.08750067 469.9337184 313.4396799 469.36824602 308.30175781 469.49365234 C307.20669922 469.51041016 306.11164063 469.52716797 304.98339844 469.54443359 C302.691572 469.58893508 300.39988229 469.64109724 298.10839844 469.70068359 C297.01720703 469.71486328 295.92601562 469.72904297 294.80175781 469.74365234 C293.80829346 469.76572754 292.8148291 469.78780273 291.79125977 469.81054688 C289.25097656 469.48583984 289.25097656 469.48583984 287.49780273 468.12744141 C285.81290925 465.90906981 284.54751631 463.57561592 283.25097656 461.11083984 C281.75042182 458.27385353 280.25287381 455.4889053 278.56347656 452.75927734 C277.25097656 450.48583984 277.25097656 450.48583984 277.25097656 448.48583984 C276.59097656 448.15583984 275.93097656 447.82583984 275.25097656 447.48583984 C273.96191406 445.30615234 273.96191406 445.30615234 272.62597656 442.61083984 C272.17996094 441.72654297 271.73394531 440.84224609 271.27441406 439.93115234 C270.25097656 437.48583984 270.25097656 437.48583984 270.25097656 434.48583984 C276.65700424 432.63823848 282.72473339 431.99815014 289.37597656 431.73583984 C290.38845459 431.69418701 291.40093262 431.65253418 292.4440918 431.60961914 C302.55188589 431.2911555 311.62251356 432.24903739 321.25097656 435.48583984 C321.91097656 435.48583984 322.57097656 435.48583984 323.25097656 435.48583984 C312.98632509 430.95000717 303.35473535 427.39521636 292.25097656 425.48583984 C291.48052002 425.3125415 290.71006348 425.13924316 289.91625977 424.96069336 C287.1045502 424.45975216 284.50769117 424.37579021 281.65332031 424.38037109 C280.60466797 424.36554688 279.55601562 424.35072266 278.47558594 424.33544922 C276.28040714 424.31066705 274.08492056 424.30552701 271.88964844 424.31982422 C268.90068517 424.25912527 266.17016111 424.13422931 263.25097656 423.48583984 C260.68066406 420.75537109 260.68066406 420.75537109 259.25097656 417.48583984 C258.52974609 416.21353516 258.52974609 416.21353516 257.79394531 414.91552734 C257.34664063 414.07248047 256.89933594 413.22943359 256.43847656 412.36083984 C253.64430619 407.14410233 250.64504354 402.07348249 247.57128906 397.01708984 C246.25097656 394.48583984 246.25097656 394.48583984 246.25097656 391.48583984 C270.10369521 387.06070494 295.66453389 390.8672501 318.32080078 398.81054688 C320.09356081 399.43076623 321.87695055 400.02038112 323.66113281 400.60693359 C326.25097656 401.48583984 326.25097656 401.48583984 328.25097656 402.48583984 C328.83492188 402.77201172 329.41886719 403.05818359 330.02050781 403.35302734 C333.86961064 405.25181994 337.5959101 407.22829879 341.25097656 409.48583984 C341.91097656 409.81583984 342.57097656 410.14583984 343.25097656 410.48583984 C344.58719902 411.81627778 345.92001359 413.15014035 347.25097656 414.48583984 C348.93897007 415.92668166 350.64802845 417.34316524 352.37597656 418.73583984 C353.24480469 419.44224609 354.11363281 420.14865234 355.00878906 420.87646484 C357.0617773 422.68021017 357.0617773 422.68021017 359.25097656 422.48583984 C360.26665464 424.14299881 361.26103469 425.81317943 362.25097656 427.48583984 C366.05334428 433.25846309 366.05334428 433.25846309 371.25097656 437.48583984 C372.18566901 438.99206398 373.0482659 440.54327607 373.87597656 442.11083984 C375.63940113 445.44366917 377.40210074 448.77173944 379.24707031 452.06005859 C383.84994672 460.33956299 387.25003196 468.48300605 390.25097656 477.48583984 C390.70988281 478.67862549 391.16878906 479.87141113 391.64160156 481.1003418 C393.35832968 485.66101913 394.74364568 490.29368935 396.10644531 494.97021484 C396.65227636 496.8127792 397.19851422 498.65522308 397.74511719 500.49755859 C398.58705949 503.34545452 399.42628074 506.19403909 400.25805664 509.04492188 C408.17076727 539.8421105 408.17076727 539.8421105 424.25097656 566.48583984 C425.14656112 567.99464312 426.01838998 569.51761966 426.87597656 571.04833984 C429.66315249 575.80171661 432.9172483 579.69391507 436.71191406 583.67333984 C438.25097656 585.48583984 438.25097656 585.48583984 438.25097656 587.48583984 C435.83492431 588.30020572 433.41817658 589.11239381 431.00097656 589.92333984 C430.3190625 590.1534375 429.63714844 590.38353516 428.93457031 590.62060547 C425.72920819 591.69424618 422.55035679 592.743663 419.25097656 593.48583984 C417.99285156 593.77458984 416.73472656 594.06333984 415.43847656 594.36083984 C414.63829102 594.53365479 413.83810547 594.70646973 413.01367188 594.88452148 C411.07126129 595.30729961 409.13336888 595.7511152 407.19921875 596.21020508 C396.27131207 598.64487614 385.47767066 599.23480026 374.31347656 599.67333984 C372.45470567 599.75496025 370.59598082 599.83763609 368.73730469 599.92138672 C364.24229828 600.12167359 359.74691651 600.30779231 355.25097656 600.48583984 C355.25097656 599.82583984 355.25097656 599.16583984 355.25097656 598.48583984 C354.26436035 598.51846924 354.26436035 598.51846924 353.2578125 598.55175781 C346.13137908 598.68354286 339.49612241 597.91721807 332.50097656 596.61083984 C331.51226562 596.43681641 330.52355469 596.26279297 329.50488281 596.08349609 C324.31732252 595.14848856 319.28998973 594.05527665 314.25097656 592.48583984 C313.0006665 592.10081299 313.0006665 592.10081299 311.72509766 591.70800781 C293.37357206 585.9918556 277.58712159 578.90645526 261.48144531 568.48974609 C258.40417497 566.40837435 258.40417497 566.40837435 255.25097656 565.48583984 C253.56277019 563.84099493 251.89978123 562.1701791 250.25097656 560.48583984 C248.68789593 559.12626419 247.09265309 557.81145804 245.49487305 556.49291992 C226.66219401 540.89261727 212.54846086 521.53861549 199.37329102 501.09545898 C198.21261129 499.33040667 198.21261129 499.33040667 196.25097656 497.48583984 C195.35612392 495.67884272 194.46346837 493.87073383 193.58007812 492.05810547 C190.69393792 486.4724381 187.3573352 481.12718988 184.12597656 475.73583984 C183.03105398 473.9054999 181.93697647 472.07466767 180.84451294 470.24285889 C179.85926668 468.59131745 178.87135976 466.94136413 177.88330078 465.29150391 C176.92007229 463.63589191 175.9930398 461.95665049 175.15380859 460.23486328 C174.26671526 458.29891671 174.26671526 458.29891671 172.25097656 456.48583984 C170.98885015 454.35328142 169.76594837 452.21399415 168.56347656 450.04833984 C160.21951909 435.22297602 160.21951909 435.22297602 150.25097656 421.48583984 C149.59097656 421.48583984 148.93097656 421.48583984 148.25097656 421.48583984 C148.16332031 420.92767578 148.07566406 420.36951172 147.98535156 419.79443359 C145.69803431 412.60398414 137.99123285 405.21521606 131.93847656 400.79833984 C131.38160156 400.36521484 130.82472656 399.93208984 130.25097656 399.48583984 C130.25097656 398.82583984 130.25097656 398.16583984 130.25097656 397.48583984 C129.59097656 397.48583984 128.93097656 397.48583984 128.25097656 397.48583984 C127.54585937 396.74849609 126.84074219 396.01115234 126.11425781 395.25146484 C122.79824291 392.04854731 119.54282356 390.24361072 115.43847656 388.23583984 C114.76494141 387.88521484 114.09140625 387.53458984 113.39746094 387.17333984 C112.3871582 386.67060547 112.3871582 386.67060547 111.35644531 386.15771484 C110.75985107 385.85961914 110.16325684 385.56152344 109.54858398 385.25439453 C102.22166033 382.80352261 94.06896072 383.27920118 86.43847656 383.16943359 C84.62428223 383.13826195 84.62428223 383.13826195 82.7734375 383.10646057 C78.93267166 383.04138941 75.09184092 382.98227832 71.25097656 382.92333984 C68.63768876 382.88011423 66.02440738 382.83649868 63.41113281 382.79248047 C57.02448147 382.68575181 50.63776643 382.58390873 44.25097656 382.48583984 C42.8448703 385.29805237 43.13794922 387.61112762 43.15090942 390.75778198 C43.1521717 391.40847597 43.15343397 392.05916996 43.15473449 392.72958195 C43.16013216 394.92034926 43.17265989 397.11101976 43.18505859 399.30175781 C43.19024983 400.86876784 43.19495835 402.43577953 43.19921875 404.00279236 C43.20917712 407.38423026 43.22203404 410.76564075 43.23694229 414.14706039 C43.25998919 419.50209243 43.27330618 424.85712067 43.28463745 430.21218872 C43.31807887 445.44277707 43.35948903 460.67331119 43.42236328 475.90380859 C43.45698575 484.31046913 43.48073223 492.71708849 43.49257171 501.12381279 C43.49931971 505.56984431 43.51168259 510.01570167 43.53760147 514.46166611 C43.56202948 518.65265431 43.57224478 522.84344493 43.57200623 527.03450203 C43.57440935 528.56463533 43.58190065 530.09477137 43.59513474 531.62484932 C43.67346499 541.08378845 43.57893529 550.82992239 39.25097656 559.48583984 C39.91097656 559.81583984 40.57097656 560.14583984 41.25097656 560.48583984 C40.26097656 560.48583984 39.27097656 560.48583984 38.25097656 560.48583984 C37.97769531 561.22060547 37.70441406 561.95537109 37.42285156 562.71240234 C35.59597578 567.03600837 32.95843236 570.67168679 30.25097656 574.48583984 C29.85523437 575.09814453 29.45949219 575.71044922 29.05175781 576.34130859 C25.77615027 580.85689375 21.57491991 583.25669197 16.75097656 585.86083984 C16.10974854 586.20703369 15.46852051 586.55322754 14.80786133 586.90991211 C10.93852662 588.89353636 7.51841897 589.83029899 3.25097656 590.48583984 C2.92097656 591.14583984 2.59097656 591.80583984 2.25097656 592.48583984 C-1.08233783 592.51521422 -4.41561827 592.53276318 -7.74902344 592.54833984 C-8.68359375 592.55671875 -9.61816406 592.56509766 -10.58105469 592.57373047 C-16.07176745 592.59292877 -21.31768825 592.29925915 -26.74902344 591.48583984 C-26.74902344 590.82583984 -26.74902344 590.16583984 -26.74902344 589.48583984 C-29.05902344 589.15583984 -31.36902344 588.82583984 -33.74902344 588.48583984 C-33.74902344 587.82583984 -33.74902344 587.16583984 -33.74902344 586.48583984 C-34.48507813 586.21771484 -35.22113281 585.94958984 -35.97949219 585.67333984 C-46.78083465 581.0420167 -54.74860414 570.93512781 -59.15527344 560.29833984 C-59.74902344 558.48583984 -59.74902344 558.48583984 -59.74902344 556.48583984 C-60.40902344 556.15583984 -61.06902344 555.82583984 -61.74902344 555.48583984 C-62.81675197 550.25574827 -62.89413447 545.10866955 -62.88603783 539.79804325 C-62.88868965 538.94381955 -62.89134148 538.08959584 -62.89407367 537.20948657 C-62.90173628 534.34562493 -62.90232467 531.48180638 -62.90292358 528.61793518 C-62.9069402 526.54439666 -62.91137875 524.47085892 -62.91620314 522.39732212 C-62.9281521 516.69763476 -62.93381319 510.99795585 -62.93838429 505.29825842 C-62.94434667 499.15145478 -62.95595485 493.00466122 -62.9666748 486.85786438 C-62.99118303 472.0129694 -63.00582329 457.16807307 -63.01873487 442.32316461 C-63.0224071 438.12963463 -63.02640983 433.93610501 -63.03048754 429.74257541 C-63.05574978 403.6949187 -63.07778996 377.64726133 -63.09021568 351.59959507 C-63.09313683 345.56794291 -63.09610439 339.53629078 -63.09912109 333.50463867 C-63.099492 332.7553103 -63.09986291 332.00598194 -63.10024506 331.23394665 C-63.11239628 306.94761698 -63.14333527 282.66135985 -63.18504262 258.37506424 C-63.22786809 233.39198963 -63.25446142 208.40895333 -63.2596904 183.42584102 C-63.26043079 179.89423981 -63.26134146 176.36263867 -63.26234818 172.83103752 C-63.26253879 172.13603395 -63.2627294 171.44103038 -63.2629258 170.72496609 C-63.26643325 159.56024344 -63.28670259 148.39561195 -63.31314481 137.23092273 C-63.33934389 125.99915764 -63.34658083 114.76749569 -63.33604352 103.53569473 C-63.33086301 97.45572862 -63.33370485 91.37605132 -63.35850906 85.29612732 C-63.3810572 79.72255024 -63.38021809 74.14946852 -63.36130519 68.57588243 C-63.35851304 66.56706514 -63.36405964 64.55821385 -63.37911813 62.54945106 C-63.51303012 43.51119134 -60.31591242 28.58631351 -46.93652344 14.23583984 C-33.32434009 1.30165797 -17.80280117 -0.11387036 0 0 Z " fill="#5F6E53" transform="translate(62.7490234375,-0.48583984375)"/>
<path d="M0 0 C1.04736328 0.05220703 2.09472656 0.10441406 3.17382812 0.15820312 C5.72048782 0.28611754 8.26656703 0.42097013 10.8125 0.5625 C7.29805931 2.7263898 4.45129953 2.82003879 0.3671875 2.828125 C-0.87417969 2.83070312 -2.11554688 2.83328125 -3.39453125 2.8359375 C-4.68746094 2.82820313 -5.98039062 2.82046875 -7.3125 2.8125 C-8.61316406 2.82023437 -9.91382813 2.82796875 -11.25390625 2.8359375 C-12.49269531 2.83335938 -13.73148438 2.83078125 -15.0078125 2.828125 C-16.14492676 2.82586914 -17.28204102 2.82361328 -18.45361328 2.82128906 C-21.1875 2.5625 -21.1875 2.5625 -23.1875 0.5625 C-15.37459348 -0.36239536 -7.84806053 -0.43796104 0 0 Z " fill="#59664E" transform="translate(153.1875,89.4375)"/>
<path d="M0 0 C0.70705078 -0.01224609 1.41410156 -0.02449219 2.14257812 -0.03710938 C5.90664521 -0.04771238 8.74546912 0.08987971 11.9375 2.1875 C3.91247656 2.98431084 -3.99899887 3.31617289 -12.0625 3.1875 C-12.3925 2.5275 -12.7225 1.8675 -13.0625 1.1875 C-8.71169047 0.12321195 -4.45434516 0.00408281 0 0 Z " fill="#56634B" transform="translate(59.0625,-0.1875)"/>
<path d="M0 0 C-1 1.5 -1 1.5 -3 3 C-5.71846235 3.27345479 -8.25677199 3.13491285 -11 3 C-11.33 2.34 -11.66 1.68 -12 1 C-7.93631321 0.22596442 -4.13574827 -0.0984702 0 0 Z " fill="#59654E" transform="translate(461,595)"/>
<path d="M0 0 C0.66 0 1.32 0 2 0 C1.67 0.66 1.34 1.32 1 2 C0.67 1.34 0.34 0.68 0 0 Z " fill="#616F57" transform="translate(495,576)"/>
<path d="M0 0 C0.66 0.66 1.32 1.32 2 2 C1.34 2 0.68 2 0 2 C0 1.34 0 0.68 0 0 Z " fill="#5E6D54" transform="translate(253,353)"/>
<path d="M0 0 C3 1 3 1 3 1 Z " fill="#5F6D53" transform="translate(162,95)"/>
<path d="M0 0 C2 1 2 1 2 1 Z " fill="#616F54" transform="translate(500,590)"/>
<path d="M0 0 C2 1 2 1 2 1 Z " fill="#606F54" transform="translate(11,580)"/>
<path d="" fill="#606F54" transform="translate(0,0)"/>
<path d="M0 0 C2 1 2 1 2 1 Z " fill="#606E54" transform="translate(470,526)"/>
<path d="M0 0 C2 1 2 1 2 1 Z " fill="#5E6C51" transform="translate(270,518)"/>
<path d="M0 0 C2 1 2 1 2 1 Z " fill="#616C56" transform="translate(365,493)"/>
<path d="" fill="#606E54" transform="translate(0,0)"/>
<path d="" fill="#626E58" transform="translate(0,0)"/>
<path d="M0 0 C2 1 2 1 2 1 Z " fill="#5D6A52" transform="translate(399,477)"/>
<path d="" fill="#5F6D53" transform="translate(0,0)"/>
<path d="M0 0 C2 1 2 1 2 1 Z " fill="#616C56" transform="translate(374,469)"/>
<path d="M0 0 C2 1 2 1 2 1 Z " fill="#5C6853" transform="translate(357,469)"/>
<path d="M0 0 C2 1 2 1 2 1 Z " fill="#606E55" transform="translate(323,453)"/>
<path d="M0 0 C2 1 2 1 2 1 Z " fill="#5F6D54" transform="translate(380,433)"/>
<path d="M0 0 C2 1 2 1 2 1 Z " fill="#5E6B54" transform="translate(355,425)"/>
<path d="M0 0 C2 1 2 1 2 1 Z " fill="#5C6A53" transform="translate(423,424)"/>
<path d="M0 0 C2 1 2 1 2 1 Z " fill="#5E6B55" transform="translate(380,397)"/>
<path d="M0 0 C2 1 2 1 2 1 Z " fill="#606E53" transform="translate(347,389)"/>
<path d="" fill="#5D6B51" transform="translate(0,0)"/>
<path d="M0 0 C2 1 2 1 2 1 Z " fill="#606C56" transform="translate(355,342)"/>
<path d="" fill="#5E6C51" transform="translate(0,0)"/>
<path d="" fill="#5F6D53" transform="translate(0,0)"/>
<path d="M0 0 C2 1 2 1 2 1 Z " fill="#5C6952" transform="translate(207,299)"/>
<path d="M0 0 C2 1 2 1 2 1 Z " fill="#5C6A50" transform="translate(110,282)"/>
<path d="M0 0 C2 1 2 1 2 1 Z " fill="#5F6E53" transform="translate(261,280)"/>
<path d="" fill="#606F53" transform="translate(0,0)"/>
<path d="" fill="#606C56" transform="translate(0,0)"/>
<path d="" fill="#5E6A52" transform="translate(0,0)"/>
<path d="M0 0 C2 1 2 1 2 1 Z " fill="#5F6B53" transform="translate(341,29)"/>
<path d="" fill="#5E6C53" transform="translate(0,0)"/>
<path d="" fill="#5E6C52" transform="translate(0,0)"/>
<path d="" fill="#606E54" transform="translate(0,0)"/>
<path d="" fill="#5D6B51" transform="translate(0,0)"/>
<path d="" fill="#5D6952" transform="translate(0,0)"/>
<path d="" fill="#5C6951" transform="translate(0,0)"/>
<path d="" fill="#5A674F" transform="translate(0,0)"/>
<path d="" fill="#606E54" transform="translate(0,0)"/>
<path d="" fill="#5F6D54" transform="translate(0,0)"/>
<path d="" fill="#616F55" transform="translate(0,0)"/>
<path d="" fill="#5B6750" transform="translate(0,0)"/>
<path d="" fill="#5B6851" transform="translate(0,0)"/>
<path d="" fill="#5F6D53" transform="translate(0,0)"/>
<path d="" fill="#616F55" transform="translate(0,0)"/>
<path d="" fill="#5E6A53" transform="translate(0,0)"/>
<path d="" fill="#5D6A52" transform="translate(0,0)"/>
<path d="" fill="#5F6D53" transform="translate(0,0)"/>
<path d="" fill="#5E6C52" transform="translate(0,0)"/>
<path d="" fill="#5F6B54" transform="translate(0,0)"/>
<path d="" fill="#5F6C54" transform="translate(0,0)"/>
<path d="" fill="#5D6B51" transform="translate(0,0)"/>
<path d="" fill="#616F55" transform="translate(0,0)"/>
<path d="" fill="#5F6C55" transform="translate(0,0)"/>
<path d="" fill="#5F6D53" transform="translate(0,0)"/>
<path d="" fill="#5F6B54" transform="translate(0,0)"/>
<path d="" fill="#606C55" transform="translate(0,0)"/>
<path d="" fill="#5D6A52" transform="translate(0,0)"/>
<path d="" fill="#59654D" transform="translate(0,0)"/>
<path d="" fill="#606E53" transform="translate(0,0)"/>
<path d="" fill="#5A664F" transform="translate(0,0)"/>
<path d="" fill="#5E6C52" transform="translate(0,0)"/>
<path d="" fill="#5B6751" transform="translate(0,0)"/>
<path d="" fill="#5E6B53" transform="translate(0,0)"/>
<path d="" fill="#616F54" transform="translate(0,0)"/>
<path d="" fill="#5E6B53" transform="translate(0,0)"/>
<path d="" fill="#5E6B53" transform="translate(0,0)"/>
<path d="" fill="#5E6B52" transform="translate(0,0)"/>
<path d="" fill="#5E6B52" transform="translate(0,0)"/>
<path d="" fill="#616F53" transform="translate(0,0)"/>
<path d="" fill="#5A674E" transform="translate(0,0)"/>
<path d="" fill="#5E6A53" transform="translate(0,0)"/>
<path d="" fill="#5A674E" transform="translate(0,0)"/>
<path d="" fill="#5E6C55" transform="translate(0,0)"/>
<path d="" fill="#5F6D53" transform="translate(0,0)"/>
<path d="" fill="#616F54" transform="translate(0,0)"/>
<path d="" fill="#5F6D53" transform="translate(0,0)"/>
<path d="" fill="#5C6952" transform="translate(0,0)"/>
<path d="" fill="#606E56" transform="translate(0,0)"/>
<path d="" fill="#626F58" transform="translate(0,0)"/>
<path d="" fill="#5A674F" transform="translate(0,0)"/>
<path d="" fill="#606D55" transform="translate(0,0)"/>
<path d="" fill="#626F59" transform="translate(0,0)"/>
<path d="" fill="#616E56" transform="translate(0,0)"/>
<path d="" fill="#5D6B52" transform="translate(0,0)"/>
<path d="" fill="#5A674E" transform="translate(0,0)"/>
<path d="" fill="#5F6B54" transform="translate(0,0)"/>
<path d="" fill="#616F55" transform="translate(0,0)"/>
<path d="" fill="#606C55" transform="translate(0,0)"/>
<path d="" fill="#5E6B54" transform="translate(0,0)"/>
<path d="" fill="#626E58" transform="translate(0,0)"/>
<path d="" fill="#617055" transform="translate(0,0)"/>
<path d="" fill="#627156" transform="translate(0,0)"/>
<path d="" fill="#626F57" transform="translate(0,0)"/>
<path d="" fill="#5A674E" transform="translate(0,0)"/>
<path d="" fill="#606F54" transform="translate(0,0)"/>
<path d="" fill="#626F57" transform="translate(0,0)"/>
<path d="" fill="#5A674E" transform="translate(0,0)"/>
<path d="" fill="#5D6A53" transform="translate(0,0)"/>
<path d="" fill="#626E58" transform="translate(0,0)"/>
<path d="" fill="#616D56" transform="translate(0,0)"/>
<path d="" fill="#616E57" transform="translate(0,0)"/>
<path d="" fill="#636F58" transform="translate(0,0)"/>
<path d="" fill="#65715A" transform="translate(0,0)"/>
<path d="" fill="#59674E" transform="translate(0,0)"/>
<path d="" fill="#616F55" transform="translate(0,0)"/>
<path d="" fill="#59664E" transform="translate(0,0)"/>
<path d="" fill="#626F59" transform="translate(0,0)"/>
<path d="" fill="#5D6953" transform="translate(0,0)"/>
<path d="" fill="#5D6952" transform="translate(0,0)"/>
<path d="" fill="#5D6C54" transform="translate(0,0)"/>
<path d="" fill="#5D6A53" transform="translate(0,0)"/>
<path d="" fill="#5D6B54" transform="translate(0,0)"/>
<path d="" fill="#5D6A54" transform="translate(0,0)"/>
<path d="" fill="#5C6A53" transform="translate(0,0)"/>
<path d="" fill="#59674E" transform="translate(0,0)"/>
<path d="" fill="#5F6B55" transform="translate(0,0)"/>
<path d="" fill="#606F54" transform="translate(0,0)"/>
<path d="" fill="#5F6D53" transform="translate(0,0)"/>
<path d="" fill="#5D6A53" transform="translate(0,0)"/>
<path d="" fill="#5D6B51" transform="translate(0,0)"/>
<path d="" fill="#5D6B51" transform="translate(0,0)"/>
<path d="" fill="#5F6D53" transform="translate(0,0)"/>
<path d="" fill="#626E58" transform="translate(0,0)"/>
<path d="" fill="#5F6C56" transform="translate(0,0)"/>
<path d="" fill="#5A674F" transform="translate(0,0)"/>
<path d="" fill="#5E6C54" transform="translate(0,0)"/>
<path d="" fill="#606C56" transform="translate(0,0)"/>
<path d="" fill="#626F57" transform="translate(0,0)"/>
<path d="" fill="#5A674F" transform="translate(0,0)"/>
<path d="" fill="#626E58" transform="translate(0,0)"/>
<path d="" fill="#5D6A52" transform="translate(0,0)"/>
<path d="" fill="#5F6D53" transform="translate(0,0)"/>
<path d="" fill="#5C6852" transform="translate(0,0)"/>
<path d="" fill="#5E6B52" transform="translate(0,0)"/>
<path d="" fill="#5A674F" transform="translate(0,0)"/>
<path d="" fill="#606E54" transform="translate(0,0)"/>
<path d="" fill="#606D56" transform="translate(0,0)"/>
<path d="" fill="#606D54" transform="translate(0,0)"/>
<path d="" fill="#616E55" transform="translate(0,0)"/>
<path d="" fill="#5F6B54" transform="translate(0,0)"/>
<path d="" fill="#5E6B52" transform="translate(0,0)"/>
<path d="" fill="#5F6B55" transform="translate(0,0)"/>
<path d="" fill="#5A674F" transform="translate(0,0)"/>
<path d="" fill="#5A674F" transform="translate(0,0)"/>
<path d="" fill="#617055" transform="translate(0,0)"/>
<path d="" fill="#5F6D53" transform="translate(0,0)"/>
<path d="" fill="#5A674F" transform="translate(0,0)"/>
<path d="" fill="#5C6A52" transform="translate(0,0)"/>
<path d="" fill="#5E6C55" transform="translate(0,0)"/>
<path d="" fill="#5D6A54" transform="translate(0,0)"/>
<path d="" fill="#5F6D55" transform="translate(0,0)"/>
<path d="" fill="#5A674F" transform="translate(0,0)"/>
<path d="" fill="#5A674F" transform="translate(0,0)"/>
<path d="" fill="#5D6A55" transform="translate(0,0)"/>
<path d="" fill="#59664E" transform="translate(0,0)"/>
<path d="" fill="#626F59" transform="translate(0,0)"/>
<path d="" fill="#5D6C52" transform="translate(0,0)"/>
<path d="" fill="#616E57" transform="translate(0,0)"/>
<path d="" fill="#59664E" transform="translate(0,0)"/>
<path d="" fill="#616F54" transform="translate(0,0)"/>
<path d="" fill="#5A674F" transform="translate(0,0)"/>
<path d="" fill="#5F6D53" transform="translate(0,0)"/>
<path d="" fill="#5F6C55" transform="translate(0,0)"/>
<path d="" fill="#5E6B52" transform="translate(0,0)"/>
<path d="" fill="#5D6A52" transform="translate(0,0)"/>
<path d="" fill="#616F58" transform="translate(0,0)"/>
<path d="" fill="#5E6B53" transform="translate(0,0)"/>
<path d="" fill="#5D6B53" transform="translate(0,0)"/>
<path d="" fill="#5D6B51" transform="translate(0,0)"/>
<path d="" fill="#59664D" transform="translate(0,0)"/>
<path d="" fill="#5D6B52" transform="translate(0,0)"/>
<path d="" fill="#607054" transform="translate(0,0)"/>
<path d="" fill="#617055" transform="translate(0,0)"/>
<path d="" fill="#5E6B52" transform="translate(0,0)"/>
<path d="" fill="#5C6A51" transform="translate(0,0)"/>
<path d="" fill="#59674E" transform="translate(0,0)"/>
<path d="" fill="#5D6B54" transform="translate(0,0)"/>
<path d="" fill="#59664D" transform="translate(0,0)"/>
<path d="" fill="#606E54" transform="translate(0,0)"/>
<path d="" fill="#5F6C53" transform="translate(0,0)"/>
<path d="" fill="#617055" transform="translate(0,0)"/>
<path d="" fill="#606F53" transform="translate(0,0)"/>
<path d="" fill="#5E6B53" transform="translate(0,0)"/>
<path d="" fill="#606E54" transform="translate(0,0)"/>
<path d="" fill="#5A674F" transform="translate(0,0)"/>
<path d="" fill="#5A674F" transform="translate(0,0)"/>
<path d="" fill="#617055" transform="translate(0,0)"/>
<path d="" fill="#5D6A53" transform="translate(0,0)"/>
<path d="" fill="#5D6B53" transform="translate(0,0)"/>
<path d="" fill="#606D54" transform="translate(0,0)"/>
<path d="" fill="#5F6E52" transform="translate(0,0)"/>
<path d="" fill="#5D6B53" transform="translate(0,0)"/>
<path d="" fill="#58664D" transform="translate(0,0)"/>
<path d="" fill="#5E6C54" transform="translate(0,0)"/>
<path d="" fill="#5F6D55" transform="translate(0,0)"/>
<path d="" fill="#5D6B52" transform="translate(0,0)"/>
<path d="" fill="#5F6C55" transform="translate(0,0)"/>
<path d="" fill="#5D6B52" transform="translate(0,0)"/>
<path d="" fill="#5D6B54" transform="translate(0,0)"/>
<path d="" fill="#5D6C52" transform="translate(0,0)"/>
<path d="" fill="#59674E" transform="translate(0,0)"/>
<path d="" fill="#626F58" transform="translate(0,0)"/>
<path d="" fill="#5E6D53" transform="translate(0,0)"/>
<path d="" fill="#59674E" transform="translate(0,0)"/>
<path d="" fill="#606F52" transform="translate(0,0)"/>
<path d="" fill="#5E6B53" transform="translate(0,0)"/>
<path d="" fill="#616F56" transform="translate(0,0)"/>
<path d="" fill="#5E6B53" transform="translate(0,0)"/>
<path d="" fill="#5E6B55" transform="translate(0,0)"/>
<path d="" fill="#59674E" transform="translate(0,0)"/>
<path d="" fill="#5E6C52" transform="translate(0,0)"/>
<path d="" fill="#58664D" transform="translate(0,0)"/>
<path d="" fill="#58664D" transform="translate(0,0)"/>
<path d="" fill="#5F6D53" transform="translate(0,0)"/>
<path d="" fill="#5F6C54" transform="translate(0,0)"/>
<path d="" fill="#5E6C52" transform="translate(0,0)"/>
<path d="" fill="#5F6E53" transform="translate(0,0)"/>
<path d="" fill="#5A674F" transform="translate(0,0)"/>
<path d="" fill="#5A674E" transform="translate(0,0)"/>
<path d="" fill="#5F6E53" transform="translate(0,0)"/>
<path d="" fill="#5F6D53" transform="translate(0,0)"/>
<path d="" fill="#5E6C52" transform="translate(0,0)"/>
<path d="" fill="#5A674F" transform="translate(0,0)"/>
<path d="" fill="#5D6B52" transform="translate(0,0)"/>
<path d="" fill="#59674E" transform="translate(0,0)"/>
<path d="" fill="#5D6B52" transform="translate(0,0)"/>
<path d="" fill="#5D6953" transform="translate(0,0)"/>
<path d="" fill="#616F57" transform="translate(0,0)"/>
<path d="" fill="#5D6B51" transform="translate(0,0)"/>
<path d="" fill="#5D6B51" transform="translate(0,0)"/>
<path d="" fill="#5B6851" transform="translate(0,0)"/>
<path d="" fill="#5B6852" transform="translate(0,0)"/>
<path d="" fill="#5B6750" transform="translate(0,0)"/>
<path d="" fill="#5D6D53" transform="translate(0,0)"/>
<path d="" fill="#5B6953" transform="translate(0,0)"/>
<path d="" fill="#59664E" transform="translate(0,0)"/>
<path d="" fill="#5C6952" transform="translate(0,0)"/>
<path d="" fill="#59664D" transform="translate(0,0)"/>
<path d="" fill="#606C55" transform="translate(0,0)"/>
<path d="" fill="#606D55" transform="translate(0,0)"/>
<path d="" fill="#627058" transform="translate(0,0)"/>
<path d="" fill="#59664D" transform="translate(0,0)"/>
<path d="" fill="#5D6A52" transform="translate(0,0)"/>
<path d="" fill="#606E57" transform="translate(0,0)"/>
<path d="" fill="#5D6B51" transform="translate(0,0)"/>
<path d="" fill="#5E6B54" transform="translate(0,0)"/>
<path d="" fill="#616E57" transform="translate(0,0)"/>
<path d="" fill="#59664D" transform="translate(0,0)"/>
<path d="" fill="#5D6B51" transform="translate(0,0)"/>
<path d="" fill="#5D6A53" transform="translate(0,0)"/>
<path d="" fill="#5D6C53" transform="translate(0,0)"/>
<path d="" fill="#59664D" transform="translate(0,0)"/>
<path d="" fill="#5D6B54" transform="translate(0,0)"/>
<path d="" fill="#5D6A52" transform="translate(0,0)"/>
<path d="" fill="#5F6F53" transform="translate(0,0)"/>
<path d="" fill="#5E6B54" transform="translate(0,0)"/>
<path d="" fill="#606B55" transform="translate(0,0)"/>
<path d="" fill="#5F6D55" transform="translate(0,0)"/>
<path d="" fill="#5F6E56" transform="translate(0,0)"/>
<path d="" fill="#5D6B50" transform="translate(0,0)"/>
<path d="" fill="#59664D" transform="translate(0,0)"/>
<path d="" fill="#5E6B54" transform="translate(0,0)"/>
<path d="" fill="#59664D" transform="translate(0,0)"/>
<path d="" fill="#5C6A52" transform="translate(0,0)"/>
<path d="" fill="#5B6952" transform="translate(0,0)"/>
<path d="" fill="#5E6C51" transform="translate(0,0)"/>
<path d="" fill="#5F6C55" transform="translate(0,0)"/>
<path d="" fill="#5B6852" transform="translate(0,0)"/>
<path d="" fill="#5D6B51" transform="translate(0,0)"/>
<path d="" fill="#5D6B51" transform="translate(0,0)"/>
<path d="" fill="#5D6B51" transform="translate(0,0)"/>
<path d="" fill="#5D6B51" transform="translate(0,0)"/>
<path d="" fill="#5F6F52" transform="translate(0,0)"/>
<path d="" fill="#636F59" transform="translate(0,0)"/>
<path d="" fill="#5D6A54" transform="translate(0,0)"/>
<path d="" fill="#5D6A52" transform="translate(0,0)"/>
<path d="" fill="#59664E" transform="translate(0,0)"/>
<path d="" fill="#616F56" transform="translate(0,0)"/>
<path d="" fill="#606D57" transform="translate(0,0)"/>
<path d="" fill="#5D6952" transform="translate(0,0)"/>
<path d="" fill="#59664E" transform="translate(0,0)"/>
<path d="" fill="#5F6C54" transform="translate(0,0)"/>
<path d="" fill="#5D6A52" transform="translate(0,0)"/>
<path d="" fill="#5D6B51" transform="translate(0,0)"/>
<path d="" fill="#5C6A50" transform="translate(0,0)"/>
<path d="" fill="#5D6A51" transform="translate(0,0)"/>
<path d="" fill="#606D57" transform="translate(0,0)"/>
<path d="" fill="#5D6C53" transform="translate(0,0)"/>
<path d="" fill="#5E6C51" transform="translate(0,0)"/>
<path d="" fill="#5D6B51" transform="translate(0,0)"/>
<path d="" fill="#5E6C53" transform="translate(0,0)"/>
<path d="" fill="#5D6B51" transform="translate(0,0)"/>
<path d="" fill="#606F52" transform="translate(0,0)"/>
<path d="" fill="#58664D" transform="translate(0,0)"/>
<path d="" fill="#616D56" transform="translate(0,0)"/>
<path d="" fill="#5C6953" transform="translate(0,0)"/>
<path d="" fill="#616D55" transform="translate(0,0)"/>
<path d="" fill="#616E57" transform="translate(0,0)"/>
<path d="" fill="#59664D" transform="translate(0,0)"/>
<path d="" fill="#58664D" transform="translate(0,0)"/>
<path d="" fill="#606F53" transform="translate(0,0)"/>
<path d="" fill="#616E56" transform="translate(0,0)"/>
<path d="" fill="#5F6E53" transform="translate(0,0)"/>
<path d="" fill="#59664E" transform="translate(0,0)"/>
<path d="" fill="#636F59" transform="translate(0,0)"/>
<path d="" fill="#5F6D56" transform="translate(0,0)"/>
<path d="" fill="#606D54" transform="translate(0,0)"/>
<path d="" fill="#59664D" transform="translate(0,0)"/>
<path d="" fill="#606E55" transform="translate(0,0)"/>
<path d="" fill="#5E6A55" transform="translate(0,0)"/>
<path d="" fill="#59664D" transform="translate(0,0)"/>
<path d="" fill="#606F53" transform="translate(0,0)"/>
<path d="" fill="#5E6C51" transform="translate(0,0)"/>
<path d="" fill="#5D6B51" transform="translate(0,0)"/>
<path d="" fill="#606F53" transform="translate(0,0)"/>
<path d="" fill="#5F6E52" transform="translate(0,0)"/>
<path d="" fill="#5E6C51" transform="translate(0,0)"/>
<path d="" fill="#5E6C51" transform="translate(0,0)"/>
<path d="" fill="#5F6C52" transform="translate(0,0)"/>
<path d="" fill="#58664C" transform="translate(0,0)"/>
<path d="" fill="#5D6C53" transform="translate(0,0)"/>
<path d="" fill="#606E54" transform="translate(0,0)"/>
<path d="" fill="#58664D" transform="translate(0,0)"/>
<path d="" fill="#5C6A50" transform="translate(0,0)"/>
<path d="" fill="#5E6C52" transform="translate(0,0)"/>
<path d="" fill="#617055" transform="translate(0,0)"/>
<path d="" fill="#59674E" transform="translate(0,0)"/>
<path d="" fill="#59664E" transform="translate(0,0)"/>
<path d="" fill="#58664D" transform="translate(0,0)"/>
<path d="" fill="#5D6B51" transform="translate(0,0)"/>
<path d="" fill="#5F6C52" transform="translate(0,0)"/>
<path d="" fill="#5F6D53" transform="translate(0,0)"/>
<path d="" fill="#606E55" transform="translate(0,0)"/>
<path d="" fill="#626F58" transform="translate(0,0)"/>
<path d="" fill="#5D6B51" transform="translate(0,0)"/>
<path d="" fill="#5D6B51" transform="translate(0,0)"/>
<path d="" fill="#5C6A50" transform="translate(0,0)"/>
<path d="" fill="#616F57" transform="translate(0,0)"/>
<path d="" fill="#5D6B51" transform="translate(0,0)"/>
<path d="" fill="#59664E" transform="translate(0,0)"/>
<path d="" fill="#5D6B52" transform="translate(0,0)"/>
<path d="" fill="#606F53" transform="translate(0,0)"/>
<path d="" fill="#5E6B53" transform="translate(0,0)"/>
<path d="" fill="#5C6B51" transform="translate(0,0)"/>
<path d="" fill="#606F53" transform="translate(0,0)"/>
<path d="" fill="#58664D" transform="translate(0,0)"/>
<path d="" fill="#5C6A50" transform="translate(0,0)"/>
<path d="" fill="#5C6A50" transform="translate(0,0)"/>
<path d="" fill="#58664D" transform="translate(0,0)"/>
<path d="" fill="#58664D" transform="translate(0,0)"/>
<path d="" fill="#607054" transform="translate(0,0)"/>
<path d="" fill="#606E54" transform="translate(0,0)"/>
<path d="" fill="#606B55" transform="translate(0,0)"/>
<path d="" fill="#606B56" transform="translate(0,0)"/>
<path d="" fill="#616D55" transform="translate(0,0)"/>
<path d="" fill="#616D56" transform="translate(0,0)"/>
<path d="" fill="#606F54" transform="translate(0,0)"/>
<path d="" fill="#5E6D52" transform="translate(0,0)"/>
<path d="" fill="#5E6D52" transform="translate(0,0)"/>
<path d="" fill="#5F6C55" transform="translate(0,0)"/>
<path d="" fill="#59664D" transform="translate(0,0)"/>
<path d="" fill="#606D55" transform="translate(0,0)"/>
<path d="" fill="#606D53" transform="translate(0,0)"/>
<path d="" fill="#59664D" transform="translate(0,0)"/>
<path d="" fill="#59664D" transform="translate(0,0)"/>
<path d="" fill="#59664D" transform="translate(0,0)"/>
<path d="" fill="#606F53" transform="translate(0,0)"/>
<path d="" fill="#5E6C52" transform="translate(0,0)"/>
<path d="" fill="#5D6B51" transform="translate(0,0)"/>
<path d="" fill="#606F53" transform="translate(0,0)"/>
<path d="" fill="#59664E" transform="translate(0,0)"/>
<path d="" fill="#59664E" transform="translate(0,0)"/>
<path d="" fill="#607054" transform="translate(0,0)"/>
<path d="" fill="#59664E" transform="translate(0,0)"/>
<path d="" fill="#617054" transform="translate(0,0)"/>
<path d="" fill="#5E6B54" transform="translate(0,0)"/>
<path d="" fill="#5F6D52" transform="translate(0,0)"/>
<path d="" fill="#606F53" transform="translate(0,0)"/>
<path d="" fill="#606E57" transform="translate(0,0)"/>
<path d="" fill="#626E57" transform="translate(0,0)"/>
<path d="" fill="#5C694F" transform="translate(0,0)"/>
<path d="" fill="#5C6951" transform="translate(0,0)"/>
<path d="" fill="#5D6B51" transform="translate(0,0)"/>
<path d="" fill="#5D6B52" transform="translate(0,0)"/>
<path d="" fill="#59674D" transform="translate(0,0)"/>
<path d="" fill="#5D6952" transform="translate(0,0)"/>
<path d="" fill="#5D6C50" transform="translate(0,0)"/>
<path d="" fill="#5F6B53" transform="translate(0,0)"/>
<path d="" fill="#59674E" transform="translate(0,0)"/>
<path d="" fill="#616E57" transform="translate(0,0)"/>
<path d="" fill="#5E6B53" transform="translate(0,0)"/>
<path d="" fill="#5C6B4F" transform="translate(0,0)"/>
<path d="" fill="#606F54" transform="translate(0,0)"/>
<path d="" fill="#5B6850" transform="translate(0,0)"/>
<path d="" fill="#606F53" transform="translate(0,0)"/>
<path d="" fill="#616D56" transform="translate(0,0)"/>
<path d="" fill="#5F6D52" transform="translate(0,0)"/>
<path d="" fill="#5B6850" transform="translate(0,0)"/>
<path d="" fill="#606E52" transform="translate(0,0)"/>
<path d="" fill="#5A684E" transform="translate(0,0)"/>
<path d="" fill="#59674E" transform="translate(0,0)"/>
<path d="" fill="#5D6B51" transform="translate(0,0)"/>
<path d="" fill="#5D6B51" transform="translate(0,0)"/>
<path d="" fill="#606D55" transform="translate(0,0)"/>
<path d="" fill="#5D6B53" transform="translate(0,0)"/>
<path d="" fill="#617054" transform="translate(0,0)"/>
<path d="" fill="#59674E" transform="translate(0,0)"/>
<path d="" fill="#59674E" transform="translate(0,0)"/>
<path d="" fill="#5F6D55" transform="translate(0,0)"/>
<path d="" fill="#5D6B51" transform="translate(0,0)"/>
<path d="" fill="#5E6C53" transform="translate(0,0)"/>
<path d="" fill="#5F6D52" transform="translate(0,0)"/>
<path d="" fill="#5E6C51" transform="translate(0,0)"/>
<path d="" fill="#5D6B51" transform="translate(0,0)"/>
<path d="" fill="#606D55" transform="translate(0,0)"/>
<path d="" fill="#5E6C53" transform="translate(0,0)"/>
<path d="" fill="#616F54" transform="translate(0,0)"/>
<path d="" fill="#5E6B52" transform="translate(0,0)"/>
<path d="" fill="#5A674E" transform="translate(0,0)"/>
<path d="" fill="#5E6C53" transform="translate(0,0)"/>
<path d="" fill="#5E6B51" transform="translate(0,0)"/>
<path d="" fill="#5C6A51" transform="translate(0,0)"/>
<path d="" fill="#5C6A51" transform="translate(0,0)"/>
<path d="" fill="#5A674E" transform="translate(0,0)"/>
<path d="" fill="#59674E" transform="translate(0,0)"/>
<path d="" fill="#5F6E53" transform="translate(0,0)"/>
<path d="" fill="#617054" transform="translate(0,0)"/>
<path d="" fill="#606C55" transform="translate(0,0)"/>
<path d="" fill="#5F6E53" transform="translate(0,0)"/>
<path d="" fill="#5A674E" transform="translate(0,0)"/>
<path d="" fill="#5F6C53" transform="translate(0,0)"/>
<path d="" fill="#5F6C52" transform="translate(0,0)"/>
<path d="" fill="#627054" transform="translate(0,0)"/>
<path d="" fill="#59674E" transform="translate(0,0)"/>
<path d="" fill="#59674E" transform="translate(0,0)"/>
<path d="" fill="#5E6C51" transform="translate(0,0)"/>
<path d="" fill="#637255" transform="translate(0,0)"/>
<path d="" fill="#616D55" transform="translate(0,0)"/>
<path d="" fill="#627155" transform="translate(0,0)"/>
</svg>
