<?xml version="1.0" encoding="UTF-8"?>
<svg version="1.1" xmlns="http://www.w3.org/2000/svg" width="1511" height="1360">
<path d="M0 0 C498.63 0 997.26 0 1511 0 C1511 448.8 1511 897.6 1511 1360 C1012.37 1360 513.74 1360 0 1360 C0 911.2 0 462.4 0 0 Z " fill="#FDFEFD" transform="translate(0,0)"/>
<path d="M0 0 C1.6294521 -0.00233999 1.6294521 -0.00233999 3.29182243 -0.00472724 C6.90313989 -0.00869057 10.51441471 -0.00556571 14.12573242 -0.00241089 C16.72703577 -0.00376706 19.32833893 -0.00554821 21.92964172 -0.00772095 C28.24649496 -0.01215313 34.56333627 -0.0112132 40.88018996 -0.00830831 C46.02183254 -0.00604263 51.1634718 -0.00574679 56.30511475 -0.00683212 C57.03916007 -0.00698536 57.7732054 -0.00713859 58.52949452 -0.00729647 C60.02116776 -0.00761622 61.51284099 -0.00794044 63.00451422 -0.00826906 C76.97476785 -0.01111679 90.94501491 -0.00784874 104.91526747 -0.00246869 C116.86514581 0.00199122 128.81501442 0.00122876 140.76489258 -0.00338745 C154.67546149 -0.00875864 168.58602463 -0.01083433 182.49659443 -0.00777519 C183.98498344 -0.00745668 185.47337246 -0.00714231 186.96176147 -0.00683212 C188.05991004 -0.00660071 188.05991004 -0.00660071 189.18024343 -0.00636462 C194.3030759 -0.00550652 199.42590467 -0.00694717 204.54873657 -0.00931168 C211.46973013 -0.01243614 218.39070522 -0.0101598 225.31169701 -0.00441742 C227.83866534 -0.00310547 230.36563523 -0.00345701 232.89260292 -0.00568008 C270.33886174 -0.03556122 270.33886174 -0.03556122 284.66870117 2.62698364 C286.25025415 2.89930725 287.83228703 3.16885891 289.41479492 3.43557739 C290.14682129 3.55916626 290.87884766 3.68275513 291.63305664 3.81008911 C295.1625069 4.3595286 298.70757001 4.61062146 302.26635742 4.88479614 C305.57289779 5.21813842 308.77671774 5.87089205 312.02197266 6.57522583 C314.5153496 7.09501477 317.00950831 7.5363627 319.52026367 7.96292114 C326.76736246 9.27401805 333.90301669 11.0254127 341.04370117 12.81448364 C341.74402466 12.98961487 342.44434814 13.16474609 343.16589355 13.34518433 C358.5419765 17.2108683 374.09093016 21.14275355 388.09838867 28.76760864 C390.58267605 30.08148707 393.11177006 31.18003794 395.70043945 32.26956177 C422.91112624 44.12318767 447.26168654 60.80649818 469.66870117 80.12698364 C470.36350586 80.70835083 471.05831055 81.28971802 471.77416992 81.88870239 C482.4505227 90.92604152 492.06369683 101.12058274 500.66870117 112.12698364 C501.69737305 113.37221802 501.69737305 113.37221802 502.74682617 114.64260864 C507.58554225 120.51555411 511.68019405 126.65472436 515.66870117 133.12698364 C516.85383948 134.98266073 518.04133199 136.83683645 519.23120117 138.68948364 C520.37876665 140.50088745 521.52464352 142.3133623 522.66870117 144.12698364 C523.47694336 145.39542114 523.47694336 145.39542114 524.30151367 146.68948364 C527.36241736 151.61153982 529.75611376 156.47347424 531.80932617 161.89260864 C533.17217542 165.43601668 534.91132147 168.76478993 536.75463867 172.08010864 C540.80883532 179.67204376 543.34773761 187.66261421 545.93676758 195.83840942 C546.62248558 197.98247898 547.3339906 200.11580704 548.05541992 202.24807739 C552.41705495 215.32975998 554.41712745 228.54518633 556.10253906 242.20584106 C556.63502083 245.89371931 557.39692846 249.44914232 558.20776367 253.08401489 C560.20017037 263.01665439 560.12019684 272.96588075 560.05981445 283.06057739 C560.04383041 286.22638748 560.05969179 289.39090124 560.07885742 292.55667114 C560.09673288 310.41460263 557.99817866 327.61289358 554.28588867 345.06448364 C553.78309092 347.5593788 553.41563654 349.97336548 553.16870117 352.50198364 C552.77858391 355.33033381 552.30811341 357.41869069 551.38745117 360.06057739 C550.1167849 363.78008139 548.90618212 367.51280167 547.73120117 371.26370239 C547.3934668 372.33555786 547.05573242 373.40741333 546.70776367 374.51174927 C546.01169979 376.72423805 545.31902209 378.93779484 544.62963867 381.15237427 C542.977267 386.37752667 541.31715358 391.3038489 538.66870117 396.12698364 C537.98689244 397.75033776 537.30525467 399.37376485 536.62573242 400.99807739 C534.89096266 404.85705502 532.91323404 408.59839881 530.97338867 412.35745239 C529.88922991 414.65885528 529.15430903 416.64564594 528.66870117 419.12698364 C528.00870117 419.12698364 527.34870117 419.12698364 526.66870117 419.12698364 C526.40831055 419.82178833 526.14791992 420.51659302 525.87963867 421.23245239 C520.79120545 433.39544923 512.76170915 443.84315796 504.66870117 454.12698364 C503.88237305 455.12858521 503.09604492 456.13018677 502.28588867 457.16213989 C490.52046554 471.81620634 477.48179257 485.54290399 462.66870117 497.12698364 C461.6606543 497.92878052 460.65260742 498.73057739 459.61401367 499.55667114 C451.60108581 505.87869558 443.28550254 511.65945913 434.66870117 517.12698364 C434.04608398 517.52353149 433.4234668 517.92007935 432.78198242 518.3286438 C412.37085992 531.18028613 390.17683559 540.83095747 367.56323242 549.06887817 C365.57621359 549.79523948 363.59464426 550.53663115 361.61791992 551.29055786 C360.15805664 551.84187378 360.15805664 551.84187378 358.66870117 552.40432739 C357.36932617 552.90114014 357.36932617 552.90114014 356.04370117 553.4079895 C353.66870117 554.12698364 353.66870117 554.12698364 349.66870117 554.12698364 C347.99495549 552.15424471 346.63094758 550.28295444 345.23120117 548.12698364 C329.73262827 525.39339911 310.36654556 504.06594498 288.66870117 487.12698364 C286.9799911 485.71175964 285.29253558 484.29503758 283.60620117 482.87698364 C262.16740414 465.37779461 238.48924275 451.2831192 213.66870117 439.12698364 C213.66870117 438.46698364 213.66870117 437.80698364 213.66870117 437.12698364 C214.80073975 437.11763794 215.93277832 437.10829224 217.09912109 437.09866333 C245.45169005 437.09027048 245.45169005 437.09027048 273.34838867 432.66653442 C276.77488399 431.86975889 280.23513033 431.31222068 283.70239258 430.72366333 C318.34737027 424.70765606 353.38503683 406.43866653 374.31323242 377.57620239 C378.45004839 371.64452259 382.05877294 365.38714548 385.66870117 359.12698364 C386.44600586 357.90495239 386.44600586 357.90495239 387.23901367 356.65823364 C389.05613566 353.44103405 390.34111185 350.08697179 391.60620117 346.62698364 C391.8663501 345.91993286 392.12649902 345.21288208 392.39453125 344.48440552 C399.03186258 326.24867109 402.1888609 309.40365725 402.05981445 290.05496216 C402.04373962 287.1963212 402.05974947 284.33909756 402.07885742 281.48049927 C402.09680975 266.94476038 401.06059783 252.76297529 395.60620117 239.12698364 C393.72170072 234.13722365 392.14866136 229.3035413 391.16870117 224.05667114 C390.39165837 221.05777159 388.96759898 218.45528442 387.47338867 215.75588989 C386.66870117 214.12698364 386.66870117 214.12698364 386.66870117 212.12698364 C386.00870117 212.12698364 385.34870117 212.12698364 384.66870117 212.12698364 C384.26522461 211.10862427 383.86174805 210.09026489 383.44604492 209.04104614 C373.23883915 185.31361276 346.98744599 163.81330037 323.53198242 154.25637817 C321.58254709 153.53298301 319.62591854 152.82905119 317.66870117 152.12698364 C316.36937225 151.51807304 315.07600088 150.89598305 313.79370117 150.25198364 C302.4983833 145.21695212 289.97058858 142.85606849 277.91870117 140.37698364 C276.91452148 140.16630249 275.9103418 139.95562134 274.87573242 139.73855591 C261.13986723 137.01348707 247.31616984 136.96962397 233.37231445 136.92166138 C231.54836757 136.9119231 229.72442283 136.90177647 227.90048027 136.89125919 C223.05729894 136.86444164 218.21410873 136.8431442 213.37089539 136.82306671 C208.81055898 136.80330341 204.25025545 136.7784597 199.68994141 136.75405884 C186.39121963 136.68581462 173.09245747 136.62563182 159.79370117 136.56448364 C130.05245117 136.42010864 100.31120117 136.27573364 69.66870117 136.12698364 C69.66870117 237.10698364 69.66870117 338.08698364 69.66870117 442.12698364 C80.55870117 442.12698364 91.44870117 442.12698364 102.66870117 442.12698364 C110.47245265 443.12018838 118.005336 444.08985621 125.68920898 445.55813599 C128.67511469 446.12820812 131.66602968 446.65698399 134.66088867 447.17776489 C136.53886715 447.51291378 138.41649201 447.85005222 140.29370117 448.18948364 C141.54618652 448.41426392 141.54618652 448.41426392 142.82397461 448.64358521 C147.39276181 449.51766289 151.56125284 450.74365921 155.88256836 452.4602356 C158.21215698 453.32985103 160.53136405 453.78703831 162.98120117 454.18948364 C166.35782921 454.74607068 167.72373644 455.16367382 170.66870117 457.12698364 C173.68073599 457.9361238 176.71084573 458.58717608 179.75854492 459.24807739 C182.66870117 460.12698364 182.66870117 460.12698364 184.61010742 461.59963989 C187.41586754 463.68133288 190.31289585 464.19501237 193.66870117 465.12698364 C196.11323245 466.22167273 198.47882324 467.34232985 200.85620117 468.56448364 C201.53255615 468.90793823 202.20891113 469.25139282 202.90576172 469.60525513 C235.20384356 486.15742923 263.01986433 506.30856411 288.73120117 532.00198364 C290.12435547 533.3767688 290.12435547 533.3767688 291.5456543 534.77932739 C297.69483864 540.91556608 303.27621693 547.32109041 308.66870117 554.12698364 C309.69381303 555.38141501 310.72087032 556.63426169 311.75073242 557.88479614 C327.06228037 576.68931665 340.03579749 597.10119403 353.0234375 617.54641724 C355.36132031 621.21334427 357.73386163 624.85730336 360.10620117 628.50198364 C364.10959867 634.66919413 368.01301486 640.88499065 371.84838867 647.15823364 C376.17764555 654.21882426 380.67342092 661.16124657 385.27807617 668.04495239 C388.73310359 673.21750026 392.17330971 678.39940665 395.59838867 683.59182739 C407.72158008 701.94661105 420.08506244 719.61878704 434.66870117 736.12698364 C435.43827148 737.00870239 436.2078418 737.89042114 437.00073242 738.79885864 C446.13176039 749.13090471 455.74680913 758.6867025 466.66870117 767.12698364 C467.27762207 767.60168091 467.88654297 768.07637817 468.51391602 768.56546021 C476.89031599 775.07561562 485.26310131 781.15998147 494.66870117 786.12698364 C495.29276855 786.45682251 495.91683594 786.78666138 496.55981445 787.12649536 C504.01068507 791.03482387 511.40088978 794.60934403 519.38354492 797.31838989 C522.30211886 798.35111606 524.9485385 799.65662544 527.66870117 801.12698364 C527.66870117 800.46698364 527.66870117 799.80698364 527.66870117 799.12698364 C526.9700293 798.90139771 526.27135742 798.67581177 525.55151367 798.44338989 C522.04199035 796.84080268 519.40576294 794.59337715 516.54370117 792.06448364 C515.3844096 791.05827822 514.22424053 790.05308297 513.06323242 789.04885864 C512.48911621 788.55063599 511.915 788.05241333 511.32348633 787.53909302 C509.01069618 785.56547569 506.61890442 783.69634754 504.23120117 781.81448364 C494.53844813 773.92404339 485.63439852 764.75139763 477.66870117 755.12698364 C477.02288086 754.37030396 476.37706055 753.61362427 475.71166992 752.83401489 C470.78807123 746.9700532 466.22408367 740.88720474 461.73120117 734.68948364 C461.16320801 733.90782837 460.59521484 733.1261731 460.01000977 732.3208313 C459.20877686 731.2058728 459.20877686 731.2058728 458.39135742 730.06838989 C457.91448486 729.4052478 457.4376123 728.74210571 456.94628906 728.05886841 C455.66870117 726.12698364 455.66870117 726.12698364 454.62353516 723.94314575 C453.80114985 721.95005325 453.80114985 721.95005325 451.66870117 721.12698364 C451.66870117 720.13698364 451.66870117 719.14698364 451.66870117 718.12698364 C460.2861438 715.43956171 468.44387495 714.68098915 477.421875 714.790802 C479.4687488 714.81434044 481.51430439 714.81134253 483.5612793 714.80471802 C496.94180758 714.83280161 509.74543294 716.51713218 522.66870117 720.12698364 C522.66870117 720.78698364 522.66870117 721.44698364 522.66870117 722.12698364 C524.43213867 722.28167114 524.43213867 722.28167114 526.23120117 722.43948364 C529.24694426 722.80308387 531.71518173 723.43650047 534.48120117 724.68948364 C537.54171952 726.33253752 537.54171952 726.33253752 540.66870117 726.12698364 C538.37740824 724.81382751 536.08568567 723.50143171 533.79370117 722.18948364 C532.81723633 721.62970825 532.81723633 721.62970825 531.82104492 721.05862427 C528.28123283 719.02565287 528.28123283 719.02565287 524.66870117 717.12698364 C524.66870117 716.46698364 524.66870117 715.80698364 524.66870117 715.12698364 C523.43120117 714.73510864 522.19370117 714.34323364 520.91870117 713.93948364 C517.1789689 712.70262991 513.59264317 711.26009735 509.98120117 709.68948364 C487.53946932 700.27752305 464.62088708 698.79424902 440.66870117 701.12698364 C438.06685605 696.80827473 435.47091561 692.48611956 432.88354492 688.15872192 C432.10837303 686.86230302 431.33241254 685.5663551 430.55541992 684.27102661 C429.56771309 682.62161169 428.58675385 680.96816161 427.60620117 679.31448364 C426.75348633 677.88169067 426.75348633 677.88169067 425.88354492 676.41995239 C424.66870117 674.12698364 424.66870117 674.12698364 424.66870117 672.12698364 C424.00870117 672.12698364 423.34870117 672.12698364 422.66870117 672.12698364 C420.78174492 667.8384467 419.08677495 663.59937017 417.66870117 659.12698364 C417.00870117 659.12698364 416.34870117 659.12698364 415.66870117 659.12698364 C413.51675747 655.89906809 413.46783674 654.84297555 413.66870117 651.12698364 C435.44918657 644.70747216 466.58958941 644.79363893 487.82836914 653.39334106 C491.62473039 654.90674854 495.59916753 655.9251821 499.52026367 657.06448364 C502.75001817 658.15442561 505.65832603 659.5359145 508.66870117 661.12698364 C508.66870117 660.46698364 508.66870117 659.80698364 508.66870117 659.12698364 C507.90299805 658.91944458 507.13729492 658.71190552 506.34838867 658.49807739 C500.18816593 656.20270777 494.61603393 652.77966438 488.89916992 649.55862427 C481.65981355 645.53179435 474.70803016 642.5498075 466.66870117 640.43948364 C465.24557617 640.06243286 465.24557617 640.06243286 463.79370117 639.67776489 C463.09245117 639.49600708 462.39120117 639.31424927 461.66870117 639.12698364 C461.66870117 638.46698364 461.66870117 637.80698364 461.66870117 637.12698364 C460.36932617 637.00323364 459.06995117 636.87948364 457.73120117 636.75198364 C454.54997713 636.40566065 451.52263398 635.89864783 448.41870117 635.12698364 C440.25140913 633.22572682 431.80371492 633.07267255 423.44995117 633.09182739 C422.25112305 633.08602661 421.05229492 633.08022583 419.81713867 633.07424927 C417.35351774 633.06765499 414.88968419 633.08918282 412.42651367 633.13674927 C403.66063712 633.0274135 403.66063712 633.0274135 400.71557617 630.35403442 C398.9693877 627.64094314 397.66870117 625.39380147 397.66870117 622.12698364 C397.00870117 622.12698364 396.34870117 622.12698364 395.66870117 622.12698364 C395.29745117 621.17823364 394.92620117 620.22948364 394.54370117 619.25198364 C392.74180013 614.99531886 390.33344739 611.16853906 387.87573242 607.26370239 C386.66870117 605.12698364 386.66870117 605.12698364 386.66870117 603.12698364 C386.00870117 603.12698364 385.34870117 603.12698364 384.66870117 603.12698364 C384.27682617 602.11635864 383.88495117 601.10573364 383.48120117 600.06448364 C382.27508155 597.20574819 380.84246851 594.85691086 378.98120117 592.37698364 C376.66870117 589.12698364 376.66870117 589.12698364 376.66870117 586.12698364 C382.34132591 585.32068756 387.8413345 584.96721337 393.56713867 584.95901489 C394.40097076 584.95568649 395.23480286 584.95235809 396.09390259 584.94892883 C397.85369318 584.9438923 399.61349322 584.94151949 401.37329102 584.94168091 C404.00187975 584.93951805 406.63003151 584.92139283 409.25854492 584.90237427 C424.88806246 584.84860362 440.00367969 586.24101329 455.29370117 589.56448364 C456.29014648 589.76880005 457.2865918 589.97311646 458.31323242 590.18362427 C464.01903826 591.3933757 469.24479382 592.9957481 474.66870117 595.12698364 C477.48594899 595.90714458 480.31086233 596.60110232 483.15307617 597.28323364 C485.83431056 598.18252965 487.44095135 599.41948678 489.66870117 601.12698364 C491.17161527 601.67851175 492.69584813 602.17352464 494.23120117 602.62698364 C518.69416863 611.23794819 542.21688849 630.54306082 557.66870117 651.12698364 C558.06653809 651.655177 558.464375 652.18337036 558.87426758 652.72756958 C566.98701818 663.57200327 575.34393569 675.10114363 579.81713867 687.97854614 C580.63563018 690.22576977 580.63563018 690.22576977 582.11401367 692.47073364 C583.91945485 695.55540702 585.01457743 698.62099294 586.16870117 702.00198364 C587.58288768 706.12669428 589.10415362 710.12636689 590.84741211 714.12161255 C592.62504486 718.46212247 594.06289281 722.92853613 595.54370117 727.37698364 C595.8959375 728.43312866 596.24817383 729.48927368 596.61108398 730.5774231 C599.25458851 738.6187894 601.51037208 746.70735491 603.57885742 754.91213989 C604.78987699 759.69248028 606.24806898 764.38359453 607.77416992 769.07229614 C608.4756001 771.46757301 609.03073692 773.7868771 609.53588867 776.22463989 C610.80860903 782.09722113 612.70361377 787.74568538 614.60620117 793.43948364 C615.12730469 795.04533325 615.12730469 795.04533325 615.65893555 796.68362427 C616.00118164 797.71294067 616.34342773 798.74225708 616.69604492 799.80276489 C617.00276123 800.73000366 617.30947754 801.65724243 617.62548828 802.61257935 C618.68194648 805.15890815 619.96742763 806.97545776 621.66870117 809.12698364 C622.3750141 810.83233994 623.0179535 812.56488862 623.60620117 814.31448364 C625.93437879 820.9714782 628.71213966 827.28684914 631.91870117 833.56448364 C633.66870117 837.12698364 633.66870117 837.12698364 633.66870117 839.12698364 C634.32870117 839.12698364 634.98870117 839.12698364 635.66870117 839.12698364 C636.82275391 840.75662231 636.82275391 840.75662231 638.10229492 843.04495239 C638.58118164 843.88147339 639.06006836 844.71799438 639.5534668 845.5798645 C640.06586914 846.48228882 640.57827148 847.38471313 641.10620117 848.31448364 C646.23048275 857.12203765 651.84987452 864.57917059 658.66870117 872.12698364 C662.66870117 876.8364431 662.66870117 876.8364431 662.66870117 879.12698364 C660.77621298 879.80308788 658.87954098 880.46748803 656.98120117 881.12698364 C655.92545898 881.49823364 654.8697168 881.86948364 653.78198242 882.25198364 C650.88508061 883.06616935 648.65169494 883.3040816 645.66870117 883.12698364 C645.66870117 883.78698364 645.66870117 884.44698364 645.66870117 885.12698364 C644.62117676 885.32332397 643.57365234 885.51966431 642.49438477 885.72195435 C638.53912821 886.46379759 634.58432357 887.20802724 630.62963867 887.95291138 C628.93086432 888.27255425 627.23197443 888.59158374 625.53295898 888.90994263 C623.06486445 889.37252823 620.59718399 889.83725917 618.12963867 890.30276489 C617.3138031 890.45585114 616.49796753 890.60893738 615.65740967 890.7666626 C610.89506603 891.67004327 606.17878607 892.69212907 601.45776367 893.79495239 C588.39896128 896.62717629 574.7346702 896.36474503 561.41870117 896.37698364 C560.6441156 896.37799072 559.86953003 896.3789978 559.07147217 896.3800354 C516.04503867 896.34263928 475.70379592 886.30274158 435.66870117 871.12698364 C435.66870117 870.46698364 435.66870117 869.80698364 435.66870117 869.12698364 C434.58588867 868.97229614 434.58588867 868.97229614 433.48120117 868.81448364 C430.37723793 868.05573707 428.37824232 866.80431864 425.66870117 865.12698364 C424.65549805 864.71190552 423.64229492 864.29682739 422.59838867 863.86917114 C408.60889927 857.95909496 395.53187686 848.51922546 383.66870117 839.12698364 C383.12149414 838.69546997 382.57428711 838.2639563 382.01049805 837.81936646 C373.79938893 831.25732991 366.31085886 823.96433726 358.85620117 816.56448364 C357.98463379 815.70226196 357.11306641 814.84004028 356.21508789 813.95169067 C350.27879239 807.98602435 344.90201011 801.71310327 339.66870117 795.12698364 C338.37803963 793.54283087 337.08652307 791.95937385 335.79370117 790.37698364 C316.5893957 766.25729046 300.84501608 739.80619418 285.43041992 713.17092896 C268.55814929 684.01856334 251.66555713 655.25785308 231.66870117 628.12698364 C231.21994629 627.51548462 230.77119141 626.9039856 230.30883789 626.2739563 C224.36707144 618.21519265 217.92319565 610.75621117 211.00708008 603.52835083 C209.85655028 602.32367351 208.72018101 601.10550039 207.58666992 599.88479614 C199.32811749 591.2263559 189.69078885 583.85428987 178.66870117 579.12698364 C178.66870117 578.46698364 178.66870117 577.80698364 178.66870117 577.12698364 C178.09940384 576.99355057 177.53010651 576.86011749 176.94355774 576.72264099 C174.66870117 576.12698364 174.66870117 576.12698364 172.63249207 575.3910675 C162.71666845 572.05456902 152.36476142 572.64672452 142.03198242 572.61526489 C139.94019023 572.59839702 137.84840803 572.58024397 135.75663757 572.56086731 C130.28397753 572.5135902 124.81135808 572.48363706 119.33856201 572.45742798 C113.74084461 572.42750944 108.14326675 572.38101817 102.5456543 572.33596802 C91.58674325 572.25018876 80.62780329 572.18273117 69.66870117 572.12698364 C69.67008386 574.00853606 69.67008386 574.00853606 69.67149448 575.92809963 C69.69316292 605.71941575 69.70964699 635.51072983 69.7197665 665.3020519 C69.72101717 668.97066523 69.7223115 672.63927854 69.72363281 676.30789185 C69.72402628 677.40340158 69.72402628 677.40340158 69.72442769 678.52104283 C69.7287763 690.33900896 69.73665942 702.1569702 69.74585397 713.97493344 C69.75521298 726.10565971 69.76076155 738.23638344 69.76278967 750.36711317 C69.76416022 757.84945427 69.76848551 765.33178159 69.77661764 772.81411845 C69.78253973 778.55630137 69.78315443 784.2984755 69.78180885 790.04066086 C69.78208373 792.39282758 69.78406978 794.74499483 69.78790665 797.09715843 C69.79289404 800.31263986 69.79168084 803.5280627 69.78895569 806.74354553 C69.79332495 808.13414567 69.79332495 808.13414567 69.79778248 809.55283874 C69.76296438 824.79043969 69.76296438 824.79043969 66.79370117 830.75198364 C66.43147461 831.50092896 66.06924805 832.24987427 65.69604492 833.02151489 C65.18750977 834.06372192 65.18750977 834.06372192 64.66870117 835.12698364 C64.23557617 836.22010864 63.80245117 837.31323364 63.35620117 838.43948364 C54.0997796 859.87280205 38.72182903 873.32350604 17.53466797 882.00100708 C13.22885807 883.66738687 9.24617181 884.56647703 4.66870117 885.12698364 C4.33870117 885.45698364 4.00870117 885.78698364 3.66870117 886.12698364 C-11.98717308 886.93302865 -26.97401647 886.00418888 -41.33129883 879.12698364 C-42.33547852 878.66807739 -43.3396582 878.20917114 -44.37426758 877.73635864 C-63.16055217 868.48910745 -75.62931903 852.01353839 -83.43676758 832.87698364 C-86.11872831 824.63200394 -86.61725823 816.93802015 -86.58298111 808.29039955 C-86.58588799 807.01196513 -86.58879487 805.73353071 -86.59178984 804.41635585 C-86.59956195 800.87272682 -86.59492646 797.32920711 -86.58823394 793.78557991 C-86.58315452 789.92845153 -86.58968277 786.07133975 -86.5947206 782.21421373 C-86.60194226 775.45562896 -86.60172589 768.69707615 -86.59662628 761.93848991 C-86.58906353 751.88815304 -86.59292768 741.83784314 -86.5990429 731.78750645 C-86.60957811 713.83739568 -86.60866005 695.88729915 -86.60288507 677.93718703 C-86.59785569 662.22757685 -86.59653975 646.51797188 -86.59893036 630.80836105 C-86.59908313 629.76665696 -86.5992359 628.72495286 -86.5993933 627.65168197 C-86.60001597 623.42313612 -86.60065277 619.19459027 -86.60131283 614.96604443 C-86.60743235 575.28972029 -86.60188165 535.61340523 -86.59111903 495.9370825 C-86.58162906 460.68429729 -86.58247573 425.43152653 -86.59204102 390.17874146 C-86.60275 350.57840515 -86.60699697 310.97807686 -86.60081649 271.37773931 C-86.60017505 267.1562388 -86.59954937 262.93473828 -86.59893036 258.71323776 C-86.5987722 257.67378561 -86.59861405 256.63433345 -86.5984511 255.56338275 C-86.5961759 239.86473857 -86.59883721 224.16610019 -86.60388947 208.46745682 C-86.60960578 190.61630745 -86.60818306 172.76517454 -86.59732798 154.91402723 C-86.59145281 144.92269313 -86.5910758 134.93139469 -86.59862033 124.94006151 C-86.60310397 118.26639494 -86.60031597 111.59275697 -86.59161079 104.91909463 C-86.5868527 101.116563 -86.58522768 97.31410221 -86.59242275 93.51157279 C-86.60009935 89.41273962 -86.59227981 85.31407978 -86.58298111 81.21525002 C-86.58766344 80.03864768 -86.59234577 78.86204534 -86.59717 77.64978838 C-86.56514224 70.60221539 -85.84774033 64.01175712 -84.33129883 57.12698364 C-83.67129883 57.12698364 -83.01129883 57.12698364 -82.33129883 57.12698364 C-82.08379883 55.84823364 -81.83629883 54.56948364 -81.58129883 53.25198364 C-77.65309823 36.03247415 -66.57449995 22.45188808 -51.97973633 12.75198364 C-35.44494652 2.60674388 -19.1019559 -0.04287346 0 0 Z " fill="#617054" transform="translate(467.331298828125,2.873016357421875)"/>
<path d="M0 0 C0.91352737 -0.00426498 1.82705475 -0.00852997 2.76826477 -0.01292419 C4.26892235 -0.01224442 4.26892235 -0.01224442 5.79989624 -0.0115509 C6.85567368 -0.01490952 7.91145111 -0.01826813 8.9992218 -0.02172852 C12.50489468 -0.03125812 16.01051979 -0.03318347 19.51620483 -0.03425598 C21.95983907 -0.03747013 24.40347311 -0.04083433 26.84710693 -0.04434204 C31.98355555 -0.0503404 37.11998734 -0.05218151 42.25643921 -0.05158997 C48.79801708 -0.05148898 55.33948484 -0.06507183 61.88103676 -0.08236217 C66.93781007 -0.09356031 71.99455757 -0.09550669 77.05134201 -0.09498024 C79.45995839 -0.09615128 81.86857564 -0.10052318 84.27717972 -0.10831261 C117.4376876 -0.20540586 146.74967649 3.32737214 172.53964233 26.13371277 C173.19835327 26.70863464 173.85706421 27.28355652 174.53573608 27.87590027 C188.45421468 40.83341486 195.03672069 60.27990602 195.96151733 78.85636902 C196.35192566 92.38135991 195.79311319 104.58991045 190.53964233 117.13371277 C190.27731812 117.78613953 190.0149939 118.43856628 189.74472046 119.11076355 C181.3196008 139.75432713 166.95200027 155.02105298 146.53964233 164.13371277 C145.54964233 164.13371277 144.55964233 164.13371277 143.53964233 164.13371277 C144.21593767 165.4520212 144.90663291 166.76293942 145.60214233 168.07121277 C145.9849939 168.80211121 146.36784546 169.53300964 146.76229858 170.28605652 C148.8463535 173.62512472 151.21873755 176.63983301 153.65560913 179.72721863 C156.66320244 183.56884714 159.53266965 187.50999796 162.41464233 191.44621277 C163.64605939 193.122254 164.8778297 194.79803575 166.10995483 196.47355652 C166.69937866 197.27519226 167.28880249 198.076828 167.89608765 198.90275574 C170.01585907 201.78012817 172.1483517 204.64730838 174.28964233 207.50871277 C174.9818689 208.43554871 175.67409546 209.36238464 176.38729858 210.31730652 C177.9316638 212.33815465 179.49392595 214.32214135 181.09823608 216.29386902 C188.48771336 225.44378864 195.75638926 235.2185129 195.00057983 247.56340027 C193.83885779 254.04147743 190.9622323 259.29360557 186.53964233 264.13371277 C183.66464233 265.89933777 183.66464233 265.89933777 180.53964233 267.38371277 C179.50839233 267.88386902 178.47714233 268.38402527 177.41464233 268.89933777 C169.0698181 272.48216991 160.51535358 271.77182248 151.92636108 269.27824402 C145.56522163 266.22781217 141.64093552 261.04119641 137.53964233 255.50871277 C136.98349243 254.76943542 136.42734253 254.03015808 135.8543396 253.26847839 C134.0744639 250.896305 132.30621065 248.51580843 130.53964233 246.13371277 C129.95553589 245.35028503 129.37142944 244.5668573 128.7696228 243.75968933 C122.05791863 234.75505164 115.45904471 225.6782507 109.01254272 216.4818573 C105.90924637 212.05771302 102.76155813 207.66935094 99.58163452 203.29997253 C94.86152129 196.81223635 90.20515843 190.29153822 85.72714233 183.63371277 C85.30030151 183.00448914 84.87346069 182.3752655 84.4336853 181.72697449 C81.53964233 177.37558718 81.53964233 177.37558718 81.53964233 175.13371277 C65.03964233 175.13371277 48.53964233 175.13371277 31.53964233 175.13371277 C31.58604858 180.35957214 31.63245483 185.58543152 31.68026733 190.96965027 C31.70072518 194.29649327 31.71998225 197.62325782 31.73495483 200.95011902 C31.7587909 206.22128063 31.78687313 211.49216216 31.84140015 216.7631073 C31.88512227 221.0165932 31.90883461 225.26977841 31.91915131 229.52347183 C31.92649569 231.13966728 31.94083671 232.7558478 31.96256256 234.37191391 C32.09953735 244.99091296 31.28024808 253.30276852 25.41464233 262.44621277 C18.11598272 269.26887284 9.45542309 271.60229573 -0.34707642 271.46965027 C-6.89335274 270.76327666 -13.68398396 268.80431986 -18.51113892 264.16105652 C-19.98199062 262.20843701 -21.22799392 260.24214462 -22.46035767 258.13371277 C-22.98371704 257.49562683 -23.50707642 256.85754089 -24.04629517 256.20011902 C-27.27761451 251.47810815 -26.60871246 245.53119788 -26.60752869 240.02662659 C-26.61120537 239.10723285 -26.61488206 238.18783912 -26.61867017 237.24058497 C-26.62968676 234.15856851 -26.63354742 231.0765858 -26.63735962 227.99455261 C-26.6436258 225.78508904 -26.65027274 223.57562653 -26.65727234 221.36616516 C-26.67829678 214.10900097 -26.68867323 206.85183661 -26.69863892 199.59465027 C-26.70268708 197.09460565 -26.70680402 194.59456115 -26.710989 192.09451675 C-26.7278552 181.69393682 -26.74248977 171.29335845 -26.74973774 160.89276695 C-26.75164746 158.19622674 -26.75356782 155.49968654 -26.75552368 152.80314636 C-26.75600742 152.13298035 -26.75649116 151.46281433 -26.75698956 150.77234025 C-26.76528506 139.92273856 -26.79061575 129.07324728 -26.82310436 118.22369377 C-26.85622587 107.07139436 -26.87385867 95.91913483 -26.87738198 84.7667824 C-26.87973066 78.51051305 -26.88866783 72.25441833 -26.91384315 65.99819565 C-26.93715593 60.10976429 -26.94134402 54.22162217 -26.93108177 48.33315659 C-26.93058709 46.17693621 -26.93688753 44.02070143 -26.95063782 41.86452484 C-27.08958435 18.77689168 -27.08958435 18.77689168 -20.56582642 9.41496277 C-14.55723403 3.83468145 -8.46668271 0.01787668 0 0 Z " fill="#627155" transform="translate(30.460357666015625,1006.8662872314453)"/>
<path d="M0 0 C0.81855469 0.28617188 1.63710938 0.57234375 2.48046875 0.8671875 C21.69560877 7.77119647 39.42884707 25.21497254 49 43 C50.40292615 46.2544845 51.66861137 49.52188256 52.859375 52.859375 C53.66117123 55.0670605 54.55158445 57.24357222 55.50390625 59.390625 C60.63584389 71.77159205 61.38392242 84.62063924 61.375 97.875 C61.37653076 99.16921875 61.37806152 100.4634375 61.37963867 101.796875 C61.02214514 133.04859985 49.85185079 158.88926101 28.66015625 181.49609375 C12.34643823 197.08070706 -10.617401 203.40652951 -32.625 203.375 C-33.75147949 203.37411377 -34.87795898 203.37322754 -36.03857422 203.37231445 C-55.68843283 203.09679686 -74.27602071 197.94744201 -88.5 183.75 C-89.67251715 182.50548618 -90.83936181 181.2555995 -92 180 C-93.33055589 178.66389499 -94.66356711 177.33022655 -96 176 C-95.98334541 177.48219025 -95.98334541 177.48219025 -95.96635437 178.99432373 C-95.86457566 188.34995028 -95.78984267 197.7054631 -95.74093914 207.06151962 C-95.71495111 211.87051388 -95.67975274 216.67905781 -95.62280273 221.48779297 C-95.56809475 226.13681657 -95.53849848 230.78540963 -95.52561378 235.43473053 C-95.51644298 237.20001239 -95.49853605 238.96527324 -95.47134972 240.73036957 C-95.29297323 252.80219948 -95.78606652 263.57385819 -104.375 273 C-110.52970398 278.82119785 -116.09171844 280.73680293 -124.375 280.625 C-125.21772461 280.61662109 -126.06044922 280.60824219 -126.92871094 280.59960938 C-133.72516038 280.35169853 -138.16703702 278.96984428 -143 274 C-143.66386719 273.3503125 -144.32773437 272.700625 -145.01171875 272.03125 C-151.43329228 265.25798786 -152.2976425 259.12602664 -152.26069641 250.06912231 C-152.26452196 249.07325352 -152.26834751 248.07738472 -152.27228898 247.05133808 C-152.28260209 243.71662601 -152.27862998 240.38208667 -152.2746582 237.04736328 C-152.27900561 234.65554648 -152.28418886 232.26373106 -152.29014587 229.87191772 C-152.30215267 224.05069264 -152.3046876 218.22952125 -152.30234561 212.40828528 C-152.30056127 207.67546331 -152.30231458 202.94265534 -152.30657005 198.20983505 C-152.30716524 197.53576963 -152.30776043 196.86170421 -152.30837366 196.16721257 C-152.30958543 194.79775962 -152.31079957 193.42830667 -152.31201603 192.05885373 C-152.32288845 179.22061688 -152.32073055 166.38240631 -152.31463119 153.54416798 C-152.3094629 141.80670876 -152.32071565 130.06933256 -152.33972941 118.33188976 C-152.35911506 106.27216099 -152.36736249 94.21247147 -152.36360615 82.15272701 C-152.36169513 75.38520823 -152.36417194 68.6177601 -152.37832069 61.85025406 C-152.39088859 55.48579757 -152.38896458 49.12150729 -152.37590981 42.75705338 C-152.37354221 40.42219995 -152.37628524 38.08733487 -152.38453293 35.75249481 C-152.39498627 32.56308512 -152.38691056 29.3742346 -152.3742218 26.18484497 C-152.38159609 25.26284904 -152.38897037 24.3408531 -152.39656812 23.3909179 C-152.32900795 15.30815156 -150.43364989 8.59717639 -144.76171875 2.609375 C-137.38789145 -4.12680426 -130.61599751 -4.6439619 -120.98828125 -4.37109375 C-117.41871903 -4.15199237 -114.34222386 -3.31057282 -111 -2 C-111 -1.34 -111 -0.68 -111 0 C-110.29875 0.185625 -109.5975 0.37125 -108.875 0.5625 C-104.63163767 2.68418116 -101.03369451 6.25557129 -99.33203125 10.7734375 C-98.85898335 13.94564108 -98.90782433 17.04502775 -98.9375 20.25 C-98.94652344 21.51328125 -98.95554687 22.7765625 -98.96484375 24.078125 C-98.97644531 25.04234375 -98.98804688 26.0065625 -99 27 C-98.34 27 -97.68 27 -97 27 C-96.814375 26.34 -96.62875 25.68 -96.4375 25 C-91.58130176 14.86532541 -80.76255442 7.07332746 -71 2 C-69.68 2 -68.36 2 -67 2 C-67 1.34 -67 0.68 -67 0 C-45.11069753 -7.86945255 -21.8321828 -8.94490039 0 0 Z " fill="#617155" transform="translate(650,1075)"/>
<path d="M0 0 C0.69470398 -0.00971832 1.38940796 -0.01943665 2.10516357 -0.02944946 C15.24360896 -0.1851256 27.8766773 1.38965863 40.1875 6.3125 C40.93088623 6.60809814 41.67427246 6.90369629 42.44018555 7.20825195 C56.69228006 13.16805469 68.52432506 22.4036182 79.3125 33.3125 C80.43205078 34.41658203 80.43205078 34.41658203 81.57421875 35.54296875 C94.9172707 49.51516264 101.30814649 67.75995569 105.3125 86.3125 C105.48450928 87.08335938 105.65651855 87.85421875 105.83374023 88.6484375 C108.8342344 105.344711 106.76388887 125.5911543 100.3125 141.3125 C100.02632812 142.02148438 99.74015625 142.73046875 99.4453125 143.4609375 C88.97578443 168.12056973 70.85850151 188.72261044 46.1875 199.6875 C43.90729185 200.5919401 41.61573612 201.46842387 39.3125 202.3125 C38.29027344 202.69019531 37.26804687 203.06789063 36.21484375 203.45703125 C18.97604243 209.27594396 1.35367877 210.04368434 -16.6875 209.3125 C-17.48462402 209.2805957 -18.28174805 209.24869141 -19.10302734 209.21582031 C-44.00942312 207.93463838 -68.49839193 195.01350941 -85.6875 177.3125 C-98.6875 162.13025701 -98.6875 162.13025701 -98.6875 157.3125 C-99.3475 157.3125 -100.0075 157.3125 -100.6875 157.3125 C-107.32834551 139.79700132 -113.251581 123.79971295 -113 104.75 C-113.00322266 103.52603516 -113.00644531 102.30207031 -113.00976562 101.04101562 C-112.94812363 90.51144153 -112.0721925 80.9588235 -107.6875 71.3125 C-107.23127158 69.56728887 -106.79559753 67.8166391 -106.375 66.0625 C-100.8617915 45.18086574 -82.58350229 25.88598598 -64.5234375 14.93359375 C-43.29043037 2.79626874 -24.01096318 0.19785749 0 0 Z " fill="#627155" transform="translate(1401.6875,1069.6875)"/>
<path d="M0 0 C3.00208289 1.03237642 6.05631341 1.84038225 9.12060547 2.66674805 C13.97652885 4.03182522 18.43410009 5.63215197 22.97998047 7.7956543 C26.11696815 9.16379308 29.36808178 10.01589773 32.65576172 10.94799805 C35.06952749 11.71305851 37.26891886 12.65198376 39.55810547 13.72924805 C44.56751897 16.06338337 49.76850572 17.40872998 55.12060547 18.72924805 C54.46155473 25.46442514 52.96818957 31.8168313 51.24560547 38.35424805 C50.86082031 39.87018555 50.86082031 39.87018555 50.46826172 41.41674805 C49.13220475 46.53270488 47.67191361 51.0674337 45.12060547 55.72924805 C44.39744141 57.43854492 44.39744141 57.43854492 43.65966797 59.18237305 C31.82561598 86.45475683 9.37736439 106.2427151 -17.76220703 117.51098633 C-43.62127839 127.68267956 -71.95224782 126.34533034 -98.87939453 121.72924805 C-97.39439453 126.67924805 -97.39439453 126.67924805 -95.87939453 131.72924805 C-95.21939453 131.72924805 -94.55939453 131.72924805 -93.87939453 131.72924805 C-92.68798828 133.19799805 -92.68798828 133.19799805 -91.31689453 135.22924805 C-83.01834189 146.57461229 -70.40271712 154.85762559 -56.42626953 157.12768555 C-41.91262638 158.66198497 -25.83032175 159.42682837 -11.87939453 154.72924805 C-10.64833984 154.31545898 -9.41728516 153.90166992 -8.14892578 153.4753418 C1.09846834 150.15859428 8.50406959 145.29062258 16.11669922 139.1081543 C21.99864817 134.79146411 28.02888084 134.66027485 35.12060547 135.72924805 C42.12834994 138.09644744 47.80341549 143.0948681 51.12060547 149.72924805 C51.24498998 152.38760542 51.30576734 155.00830034 51.30810547 157.66674805 C51.32035156 158.39571289 51.33259766 159.12467773 51.34521484 159.87573242 C51.35573232 163.70058715 51.29156171 165.47281368 49.12060547 168.72924805 C48.46060547 168.72924805 47.80060547 168.72924805 47.12060547 168.72924805 C46.84732422 169.32350586 46.57404297 169.91776367 46.29248047 170.5300293 C39.52254098 183.23494907 21.78577774 190.41265925 9.12060547 195.72924805 C8.19505859 196.11854492 7.26951172 196.5078418 6.31591797 196.90893555 C-26.95322792 209.34870314 -65.73820506 206.22330526 -97.87939453 192.22924805 C-106.63395872 188.02598634 -114.36630522 182.85574084 -121.87939453 176.72924805 C-122.45044922 176.30514648 -123.02150391 175.88104492 -123.60986328 175.4440918 C-127.95919145 172.06587253 -131.28468409 167.95646914 -134.69189453 163.66674805 C-135.17255371 163.06467529 -135.65321289 162.46260254 -136.1484375 161.84228516 C-138.6635935 158.59990354 -140.58750565 155.67959035 -141.87939453 151.72924805 C-142.53939453 151.72924805 -143.19939453 151.72924805 -143.87939453 151.72924805 C-144.30285156 150.63290039 -144.30285156 150.63290039 -144.73486328 149.5144043 C-145.80780154 146.79776317 -145.80780154 146.79776317 -146.99267578 144.5378418 C-154.16704199 130.35269428 -156.35047107 115.85695981 -156.31689453 100.10424805 C-156.31471924 98.83605225 -156.31254395 97.56785645 -156.31030273 96.26123047 C-156.14838511 86.25604316 -154.620289 77.37271913 -151.44189453 67.91674805 C-151.03068359 66.67280273 -150.61947266 65.42885742 -150.19580078 64.1472168 C-149.00128137 61.0457198 -147.60960383 58.54802893 -145.87939453 55.72924805 C-145.40630859 54.6000293 -144.93322266 53.47081055 -144.44580078 52.30737305 C-134.62258578 29.86830835 -111.9709861 12.10510394 -90.00439453 2.54174805 C-62.54726704 -8.06058006 -27.9935494 -9.79865493 0 0 Z " fill="#627155" transform="translate(408.87939453125,1075.270751953125)"/>
<path d="M0 0 C0 0.66 0 1.32 0 2 C0.62648438 2.04898437 1.25296875 2.09796875 1.8984375 2.1484375 C3.12433594 2.26058594 3.12433594 2.26058594 4.375 2.375 C5.59316406 2.47941406 5.59316406 2.47941406 6.8359375 2.5859375 C9 3 9 3 11 5 C12.96488831 5.88778692 12.96488831 5.88778692 15.125 6.625 C16.21167969 7.01558594 16.21167969 7.01558594 17.3203125 7.4140625 C17.87460937 7.60742188 18.42890625 7.80078125 19 8 C19 8.66 19 9.32 19 10 C19.72832031 10.26683594 20.45664062 10.53367187 21.20703125 10.80859375 C36.50011068 17.33221504 51.08647246 33.09329673 57.94140625 48.0546875 C58.24884766 48.95574219 58.24884766 48.95574219 58.5625 49.875 C58.80097656 50.55820313 59.03945313 51.24140625 59.28515625 51.9453125 C59.63900391 52.96238281 59.63900391 52.96238281 60 54 C60.49954903 55.25018029 60.99955296 56.50017891 61.5 57.75 C64.65707577 66.22425602 66.58071105 74.97364076 67 84 C67.04318359 84.70108887 67.08636719 85.40217773 67.13085938 86.12451172 C68.11902523 103.51408252 68.11902523 103.51408252 62.60546875 111.3828125 C61 113 61 113 58 114 C57.67 114.99 57.34 115.98 57 117 C54.4065242 118.2967379 52.53950271 118.12294945 49.6343689 118.12025452 C48.49570877 118.12162918 47.35704865 118.12300385 46.18388367 118.12442017 C44.92872452 118.12082489 43.67356537 118.11722961 42.38037109 118.11352539 C40.40483498 118.11374443 40.40483498 118.11374443 38.38938904 118.1139679 C34.77184069 118.11425551 31.15432531 118.10836458 27.53678465 118.10139394 C23.75846237 118.09515442 19.98013938 118.09455613 16.20181274 118.09336853 C9.04430505 118.09025698 1.88681257 118.08204596 -5.27068841 118.07201904 C-13.41809884 118.06085243 -21.56550998 118.05534607 -29.71292615 118.05032361 C-46.47529302 118.03986321 -63.23764457 118.02226718 -80 118 C-79.40262109 120.22094178 -78.7951754 122.43917719 -78.18359375 124.65625 C-77.84642334 125.89181641 -77.50925293 127.12738281 -77.16186523 128.40039062 C-75.52016981 133.48657623 -73.06943014 137.65768282 -70 142 C-69.2575 143.051875 -68.515 144.10375 -67.75 145.1875 C-55.59846739 157.61520381 -41.13271353 159.8640374 -24.5 160.375 C-6.72422302 160.0759333 9.44334657 152.78530592 24 143 C28.54254051 140.72872975 35.28080103 141.36866861 40.13671875 142.49609375 C46.58478125 145.06082872 51.6250607 149.6908512 55.078125 155.6328125 C57.21727609 161.12571742 57.00776739 166.9284793 55.18359375 172.48828125 C48.2192506 186.53829757 31.61809176 193.64960079 17.71069336 199.08935547 C12.74360871 200.75802391 7.6395086 201.70809609 2.5 202.6875 C0.36413188 203.10577417 -1.77130982 203.52623373 -3.90625 203.94921875 C-5.30327148 204.21738403 -5.30327148 204.21738403 -6.72851562 204.4909668 C-9.01664723 204.90798921 -9.01664723 204.90798921 -11 206 C-44.40496891 207.86383688 -77.53932659 203.93820116 -103.65966797 181.0715332 C-117.98825772 168.09154354 -127.57140114 153.54096007 -133.5 135.25 C-133.83845947 134.2089209 -134.17691895 133.1678418 -134.52563477 132.09521484 C-141.98718417 107.73073537 -139.96273474 75.56443978 -128 53 C-122.44854091 42.710057 -116.20570343 34.30412266 -108 26 C-107.35675781 25.28457031 -106.71351563 24.56914063 -106.05078125 23.83203125 C-101.92236759 19.34540382 -97.27160373 15.91137642 -92.25 12.5 C-91.5993457 12.05382324 -90.94869141 11.60764648 -90.27832031 11.14794922 C-86.82819985 8.87850888 -85.23282059 8 -81 8 C-81 7.34 -81 6.68 -81 6 C-53.98989955 -4.83911823 -28.36992603 -6.49781537 0 0 Z " fill="#627156" transform="translate(877,1073)"/>
<path d="M0 0 C7.09267986 4.13496425 11.12103975 8.49317332 13.3125 16.4375 C13.56982051 19.33484166 13.54636254 22.21036373 13.5078125 25.1171875 C13.5049826 25.92995148 13.50215271 26.74271545 13.49923706 27.58010864 C13.48810619 30.15772675 13.46301515 32.73498819 13.4375 35.3125 C13.42746101 37.06770329 13.41833677 38.82291206 13.41015625 40.578125 C13.38819015 44.86471926 13.35370978 49.1510493 13.3125 53.4375 C14.41126465 53.40084229 15.5100293 53.36418457 16.64208984 53.32641602 C20.76049093 53.19868916 24.87872125 53.11898908 28.99853516 53.05297852 C30.77357524 53.01800633 32.5484171 52.97040946 34.32275391 52.90942383 C52.10745695 52.31393152 52.10745695 52.31393152 59.56469727 58.62255859 C63.73314244 62.95112703 65.84959584 66.41974591 66.3125 72.4375 C66.38726563 73.18 66.46203125 73.9225 66.5390625 74.6875 C66.94873279 81.58721014 65.31636292 86.78793903 61.3125 92.4375 C55.38678783 98.2012337 49.07450543 99.7429338 40.94921875 99.6328125 C40.15723587 99.6299826 39.36525299 99.62715271 38.54927063 99.62423706 C36.03269001 99.61308863 33.51647211 99.58799422 31 99.5625 C29.28841662 99.55246329 27.57682763 99.54333864 25.86523438 99.53515625 C21.68085094 99.51316681 17.49673686 99.47867408 13.3125 99.4375 C13.35060736 111.53832515 13.41004292 123.63884212 13.49640274 135.73942471 C13.53584338 141.3587654 13.56804874 146.97795018 13.58349609 152.59741211 C13.59868495 158.02464679 13.6331706 163.45145274 13.68080902 168.87849617 C13.69559975 170.94479703 13.70353968 173.01115911 13.70438385 175.07751274 C13.70676218 177.98109045 13.73391176 180.88349163 13.76660156 183.78686523 C13.7615712 184.63347717 13.75654083 185.48008911 13.75135803 186.35235596 C13.89092049 194.41045907 16.63986603 201.58759622 22.3125 207.4375 C25.77720381 209.67777562 28.72922055 209.68981915 32.80078125 209.7109375 C34.06470703 209.7315625 35.32863281 209.7521875 36.63085938 209.7734375 C39.28183694 209.79936393 41.93290068 209.81766192 44.58398438 209.828125 C53.20164948 209.98584536 58.04752262 210.52411574 64.4921875 216.4375 C65.05164062 217.0975 65.61109375 217.7575 66.1875 218.4375 C66.76242187 219.0975 67.33734375 219.7575 67.9296875 220.4375 C71.31863722 225.3390318 70.97809135 231.7194652 70.3125 237.4375 C67.89892788 244.8030563 64.1472065 249.69269651 57.3515625 253.55078125 C46.57388917 258.90070935 34.41043722 258.84992069 22.625 258.8125 C21.92072876 258.8112915 21.21645752 258.81008301 20.49084473 258.80883789 C2.93519086 258.72710487 -11.6164039 256.86951755 -24.98828125 244.26953125 C-42.08489974 226.07821403 -43.14715056 204.58092621 -42.98046875 180.8828125 C-42.9748633 178.5262784 -42.97059769 176.16974077 -42.96760559 173.8132019 C-42.95623157 167.65490823 -42.92682943 161.49683177 -42.89349365 155.33862305 C-42.86263119 149.03697649 -42.84906589 142.73529434 -42.83398438 136.43359375 C-42.8019518 124.10146783 -42.75084687 111.76950208 -42.6875 99.4375 C-43.93176758 99.46070313 -45.17603516 99.48390625 -46.45800781 99.5078125 C-48.10220752 99.52657655 -49.74641375 99.54477607 -51.390625 99.5625 C-52.20934082 99.57925781 -53.02805664 99.59601563 -53.87158203 99.61328125 C-59.05263776 99.6551907 -62.95082331 99.42342715 -67.14453125 96.07421875 C-74.26232271 88.52395388 -76.08475295 83.51845175 -75.89453125 73.14453125 C-75.49712738 66.02875244 -72.8360118 61.7054581 -67.61328125 56.8828125 C-62.24844508 52.85646487 -56.29916963 53.35788514 -49.90625 53.40234375 C-48.86355957 53.40615051 -48.86355957 53.40615051 -47.79980469 53.41003418 C-46.09569127 53.41662225 -44.39159199 53.42670955 -42.6875 53.4375 C-42.70321045 51.95540039 -42.70321045 51.95540039 -42.71923828 50.44335938 C-42.75568615 46.7458057 -42.77848985 43.04826761 -42.79736328 39.35058594 C-42.80736475 37.75615765 -42.82097031 36.16174743 -42.83837891 34.56738281 C-42.86288695 32.26362624 -42.87404176 29.96011405 -42.8828125 27.65625 C-42.89313507 26.95383179 -42.90345764 26.25141357 -42.91409302 25.52770996 C-42.91602765 16.81775021 -40.86996743 9.76877956 -34.6875 3.4375 C-24.80895617 -4.10679434 -11.29303184 -5.33439695 0 0 Z " fill="#617055" transform="translate(1202.6875,1019.5625)"/>
<path d="M0 0 C0.80308594 -0.01160156 1.60617187 -0.02320313 2.43359375 -0.03515625 C10.85110665 0.00577169 17.41438416 2.28938416 23.5 8.375 C27.10843152 13.67570688 28.16520334 17.44505053 28 23.8125 C27.98646484 24.5638623 27.97292969 25.31522461 27.95898438 26.08935547 C27.65399839 34.23354505 25.53675185 38.69360697 19.5625 44.25 C14.51861827 48.56186709 9.90414991 49.58209114 3.375 50.25 C-12.1869848 52.11120882 -24.15135063 58.91075283 -33.93359375 71.171875 C-38.11866729 77.27347754 -40.19841745 84.40828665 -42.5 91.375 C-42.995 92.86 -42.995 92.86 -43.5 94.375 C-44.75313455 103.61386168 -44.67268433 112.97135542 -44.72979546 122.27604294 C-44.74644752 124.89150204 -44.76968304 127.50683106 -44.79469299 130.1222229 C-44.86486301 137.54869959 -44.92577001 144.97522258 -44.97680664 152.40185547 C-45.00863834 156.96748215 -45.04989862 161.53294482 -45.09700203 166.09843826 C-45.11296543 167.82950528 -45.12531298 169.5606097 -45.13390923 171.29172897 C-45.14609889 173.70816491 -45.17025626 176.12421504 -45.19702148 178.54052734 C-45.19761063 179.24816223 -45.19819977 179.95579712 -45.19880676 180.68487549 C-45.32821744 189.52731271 -48.71009667 195.00246488 -54.5 201.375 C-62.70567056 207.90604391 -71.48394278 208.24201146 -81.52832031 207.60888672 C-87.91331711 206.85147873 -91.97598467 203.35252755 -95.875 198.5 C-100.02245733 192.7032614 -101.87430353 187.3803977 -101.88095093 180.28504944 C-101.8856309 179.6068433 -101.89031087 178.92863716 -101.89513266 178.22987932 C-101.90701977 175.97604707 -101.89765061 173.72283 -101.88818359 171.46899414 C-101.89225215 169.845491 -101.89759562 168.22199063 -101.90411377 166.59849548 C-101.91776056 162.20174946 -101.91249936 157.80521523 -101.90297651 153.40846562 C-101.89536494 148.79976548 -101.9024298 144.19108309 -101.90713501 139.5823822 C-101.91258875 131.84273026 -101.90541154 124.10316427 -101.89111328 116.36352539 C-101.87479327 107.42653861 -101.88007209 98.48975723 -101.8965925 89.55277544 C-101.91022513 81.86932785 -101.91211817 74.18594195 -101.90427649 66.50248617 C-101.899609 61.91809216 -101.89894954 57.33379456 -101.90888596 52.74940681 C-101.91757903 48.43765634 -101.91149113 44.12616952 -101.89420319 39.8144474 C-101.89025056 38.23588752 -101.89135133 36.65730529 -101.89799118 35.07875443 C-101.97022182 16.15589661 -101.97022182 16.15589661 -95.10546875 8.828125 C-87.26602156 1.73256696 -80.59899018 0.60341502 -70.35546875 0.96875 C-66.95269542 1.32729957 -64.54855944 1.8896508 -61.5 3.375 C-61.5 4.035 -61.5 4.695 -61.5 5.375 C-60.79875 5.560625 -60.0975 5.74625 -59.375 5.9375 C-54.54421133 8.35289434 -51.42350983 12.14715155 -49.36328125 17.1171875 C-48.37897358 20.83172414 -48.05262886 24.4309795 -47.875 28.25 C-47.83632812 28.93835937 -47.79765625 29.62671875 -47.7578125 30.3359375 C-47.66451834 32.01523246 -47.58121762 33.69507767 -47.5 35.375 C-47.22027344 34.82972656 -46.94054688 34.28445313 -46.65234375 33.72265625 C-38.79268262 18.93840621 -27.70019301 6.78196132 -11.69921875 0.97485352 C-7.81341872 -0.08502778 -4.00378084 -0.05783953 0 0 Z " fill="#627156" transform="translate(1084.5,1069.625)"/>
<path d="M0 0 C1.34964844 -0.01836914 1.34964844 -0.01836914 2.7265625 -0.03710938 C17.67564457 -0.06932722 28.88978273 4.71229533 39.84375 15.03125 C46.36107197 21.94963794 50.06197428 29.17515219 52.875 38.1875 C53.41447266 39.49847656 53.41447266 39.49847656 53.96484375 40.8359375 C55.2575298 45.59612905 55.16443262 50.15313903 55.125 55.0625 C55.13660156 56.49529297 55.13660156 56.49529297 55.1484375 57.95703125 C55.12515985 66.4417357 53.38459161 73.26853171 50.25 81.1875 C49.80398438 82.321875 49.35796875 83.45625 48.8984375 84.625 C48.56070312 85.470625 48.22296875 86.31625 47.875 87.1875 C47.215 87.1875 46.555 87.1875 45.875 87.1875 C45.6171875 87.92097656 45.359375 88.65445312 45.09375 89.41015625 C40.27618249 100.38865145 29.37898555 105.80205051 18.98046875 110.42578125 C13.42975434 112.43392468 8.01905883 112.33886726 2.1875 112.3125 C0.8871582 112.31830078 0.8871582 112.31830078 -0.43945312 112.32421875 C-1.26767578 112.32292969 -2.09589844 112.32164063 -2.94921875 112.3203125 C-3.70291748 112.31918457 -4.45661621 112.31805664 -5.2331543 112.31689453 C-7.125 112.1875 -7.125 112.1875 -9.125 111.1875 C-11.42424497 110.91725292 -13.72301487 110.74252159 -16.03125 110.56640625 C-18.125 110.1875 -18.125 110.1875 -20.125 108.1875 C-21.15625 107.795625 -22.1875 107.40375 -23.25 107 C-34.16068684 102.45010777 -41.13508993 91.77999587 -46 81.5 C-46.29849854 80.87029297 -46.59699707 80.24058594 -46.90454102 79.59179688 C-53.2422882 65.56784567 -51.80767328 46.10576598 -46.6640625 31.859375 C-40.18004363 16.38988836 -29.24155971 7.58443207 -14.125 1.1875 C-9.46305429 -0.2116814 -4.82847776 0.00337184 0 0 Z " fill="#FCFCFB" transform="translate(1396.125,1117.8125)"/>
<path d="M0 0 C8.67415509 6.5366447 15.51003952 12.71843248 20.4375 22.5625 C21.32308594 24.30466797 21.32308594 24.30466797 22.2265625 26.08203125 C25.66949465 34.04487186 26.12702322 40.98628903 26.0625 49.5625 C26.07410156 51.08713867 26.07410156 51.08713867 26.0859375 52.64257812 C26.06159185 62.1921599 25.03628146 71.11044702 20.8125 79.75 C20.1525 79.75 19.4925 79.75 18.8125 79.75 C18.60625 80.41 18.4 81.07 18.1875 81.75 C13.18948939 92.65475043 4.55280253 99.06875531 -6.1875 103.75 C-6.90808594 104.07226562 -7.62867188 104.39453125 -8.37109375 104.7265625 C-14.90808873 107.29338255 -21.25442502 107.08130079 -28.1875 106.75 C-29.27289062 106.70746094 -30.35828125 106.66492187 -31.4765625 106.62109375 C-37.07426873 106.29467664 -41.39867818 105.87314466 -46.1875 102.75 C-46.93386719 102.29882812 -47.68023438 101.84765625 -48.44921875 101.3828125 C-55.35622347 96.96148329 -60.54567674 91.51091648 -65.1875 84.75 C-65.1875 84.09 -65.1875 83.43 -65.1875 82.75 C-65.8475 82.75 -66.5075 82.75 -67.1875 82.75 C-67.45304688 82.14671875 -67.71859375 81.5434375 -67.9921875 80.921875 C-68.34539063 80.12265625 -68.69859375 79.3234375 -69.0625 78.5 C-69.58457031 77.31664062 -69.58457031 77.31664062 -70.1171875 76.109375 C-71.11812464 73.8139111 -71.11812464 73.8139111 -72.1953125 71.953125 C-75.36366943 64.91787576 -75.5248267 57.96204063 -75.5 50.375 C-75.51611328 49.39789062 -75.53222656 48.42078125 -75.54882812 47.4140625 C-75.55947545 31.4004796 -68.2458137 17.12276812 -57.1875 5.75 C-42.07627616 -7.93520272 -17.45424725 -11.76839398 0 0 Z " fill="#FCFCFB" transform="translate(628.1875,1123.25)"/>
<path d="M0 0 C16.9228125 -0.0928125 16.9228125 -0.0928125 34.1875 -0.1875 C39.49171021 -0.22846802 39.49171021 -0.22846802 44.90307617 -0.27026367 C49.28771973 -0.28381348 49.28771973 -0.28381348 51.35322571 -0.28633118 C52.7676834 -0.29087826 54.18213094 -0.30130226 55.59651184 -0.31672668 C71.53862986 -0.4815891 84.1154831 1.33783419 95.91015625 12.8671875 C102.16554855 19.78346892 104.14321449 26.24829209 104.125 35.4375 C104.12886719 37.38462891 104.12886719 37.38462891 104.1328125 39.37109375 C104.02191827 42.40111541 103.71254666 45.06498638 103 48 C102.34 48 101.68 48 101 48 C100.9175 48.70125 100.835 49.4025 100.75 50.125 C99.81527235 53.70812267 98.17655248 56.01501373 96 59 C95.46375 59.825 94.9275 60.65 94.375 61.5 C86.81841458 69.45430044 75.51711174 73.72632532 64.69692993 74.12025452 C63.50224091 74.11803391 62.30755188 74.11581329 61.07666016 74.11352539 C60.40190832 74.11364593 59.72715649 74.11376646 59.03195763 74.11389065 C56.86762464 74.11314972 54.7033799 74.10555922 52.5390625 74.09765625 C51.19490602 74.09618429 49.85074897 74.09516514 48.5065918 74.09460449 C43.5460524 74.08938109 38.58552532 74.07541982 33.625 74.0625 C22.52875 74.041875 11.4325 74.02125 0 74 C0 49.58 0 25.16 0 0 Z " fill="#FCFDFB" transform="translate(63,1058)"/>
<path d="M0 0 C1.28350342 -0.00128906 2.56700684 -0.00257812 3.8894043 -0.00390625 C14.76436529 0.11556152 24.87553824 1.63707283 35.375 4.375 C32.55362454 17.23635968 17.08290071 28.8320839 6.41357422 35.80322266 C-6.08213291 43.58687018 -19.283493 48.36407588 -33.625 51.375 C-34.51316406 51.59929687 -35.40132813 51.82359375 -36.31640625 52.0546875 C-43.69065051 53.8283937 -51.08920231 53.55585914 -58.625 53.375 C-59.99768305 42.39353558 -54.38229563 31.50098106 -47.8125 22.9375 C-46.45094656 21.38590181 -45.0544225 19.86430723 -43.625 18.375 C-42.88636719 17.59640625 -42.14773438 16.8178125 -41.38671875 16.015625 C-29.72505125 4.64025049 -16.06256995 -0.01652209 0 0 Z " fill="#FAFBF9" transform="translate(365.625,1115.625)"/>
<path d="M0 0 C9.45371622 7.2445018 16.49149003 16.13958885 19 28 C19 29.65 19 31.3 19 33 C-11.36 33 -41.72 33 -73 33 C-70.960785 18.72549502 -64.52112747 9.44040569 -53.76171875 0.015625 C-37.85618879 -11.59293718 -15.96277084 -10.9047208 0 0 Z " fill="#F9F9F7" transform="translate(870,1121)"/>
<path d="M0 0 C0.66 0.33 1.32 0.66 2 1 C-0.78358481 3.84137242 -3.57815727 6.67168155 -6.375 9.5 C-7.1690625 10.31082031 -7.963125 11.12164063 -8.78125 11.95703125 C-9.92207031 13.10751953 -9.92207031 13.10751953 -11.0859375 14.28125 C-11.7876709 14.99345703 -12.4894043 15.70566406 -13.21240234 16.43945312 C-15 18 -15 18 -17 18 C-15.43727522 14.2285078 -13.07921327 11.84402385 -10.1875 9 C-9.33542969 8.154375 -8.48335937 7.30875 -7.60546875 6.4375 C-5.16027385 4.14994135 -2.64475158 2.05122565 0 0 Z " fill="#838D79" transform="translate(1329,1090)"/>
<path d="M0 0 C0.66 0.33 1.32 0.66 2 1 C-2.95 5.95 -7.9 10.9 -13 16 C-13 11.08924079 -9.30469813 8.39044878 -6 5 C-4.05397986 3.23549584 -2.07285289 1.6178364 0 0 Z " fill="#85907D" transform="translate(568,1084)"/>
<path d="M0 0 C-1.53218685 3.63061667 -3.7183144 5.9863773 -6.5 8.75 C-7.69109375 9.94882812 -7.69109375 9.94882812 -8.90625 11.171875 C-11 13 -11 13 -13 13 C-11.46781315 9.36938333 -9.2816856 7.0136227 -6.5 4.25 C-5.7059375 3.45078125 -4.911875 2.6515625 -4.09375 1.828125 C-2 0 -2 0 0 0 Z " fill="#798570" transform="translate(410,21)"/>
<path d="M0 0 C0.66 0.33 1.32 0.66 2 1 C-6.27906977 10.58139535 -6.27906977 10.58139535 -9 13 C-9.66 13 -10.32 13 -11 13 C-9.46356148 9.31930113 -7.21849055 7.01224796 -4.375 4.25 C-3.55773438 3.45078125 -2.74046875 2.6515625 -1.8984375 1.828125 C-0.95871094 0.92320313 -0.95871094 0.92320313 0 0 Z " fill="#DFE3DB" transform="translate(1062,1128)"/>
<path d="M0 0 C-1.47721422 3.45201639 -3.43794001 5.64961936 -6.125 8.25 C-6.84945313 8.95640625 -7.57390625 9.6628125 -8.3203125 10.390625 C-8.87460937 10.92171875 -9.42890625 11.4528125 -10 12 C-10.66 11.67 -11.32 11.34 -12 11 C-10.89718873 9.72799029 -9.79269231 8.45744147 -8.6875 7.1875 C-8.07261719 6.47980469 -7.45773437 5.77210937 -6.82421875 5.04296875 C-2.32122371 0 -2.32122371 0 0 0 Z " fill="#DEE2D9" transform="translate(330,1128)"/>
<path d="M0 0 C-1.39750048 3.15835107 -3.05198234 5.32272825 -5.5 7.75 C-6.41265625 8.67039062 -6.41265625 8.67039062 -7.34375 9.609375 C-9 11 -9 11 -11 11 C-9.60249952 7.84164893 -7.94801766 5.67727175 -5.5 3.25 C-4.8915625 2.63640625 -4.283125 2.0228125 -3.65625 1.390625 C-2 0 -2 0 0 0 Z " fill="#E0E5DB" transform="translate(817,1122)"/>
<path d="M0 0 C-1.38188453 3.21043882 -2.92421903 5.04936365 -5.625 7.25 C-6.57246094 8.03117187 -6.57246094 8.03117187 -7.5390625 8.828125 C-8.02117187 9.21484375 -8.50328125 9.6015625 -9 10 C-9 7 -9 7 -7.5390625 5.17578125 C-6.90742187 4.56089844 -6.27578125 3.94601562 -5.625 3.3125 C-4.68527344 2.37857422 -4.68527344 2.37857422 -3.7265625 1.42578125 C-2 0 -2 0 0 0 Z " fill="#818C78" transform="translate(1139,1075)"/>
<path d="M0 0 C1.48280196 0.78483659 2.9611498 1.57809334 4.4375 2.375 C5.67306641 3.03628906 5.67306641 3.03628906 6.93359375 3.7109375 C9 5 9 5 10 7 C6.1936543 6.32829194 2.64793184 5.27253436 -1 4 C-0.67 2.68 -0.34 1.36 0 0 Z " fill="#D1D9CB" transform="translate(999,723)"/>
<path d="M0 0 C0.66 0.33 1.32 0.66 2 1 C-1.3 4.3 -4.6 7.6 -8 11 C-8.66 10.67 -9.32 10.34 -10 10 C-6.92118304 6.12948725 -3.99926986 2.97088618 0 0 Z " fill="#D7DBD2" transform="translate(576,1125)"/>
<path d="M0 0 C0.66 0.33 1.32 0.66 2 1 C-1.3 4.3 -4.6 7.6 -8 11 C-8 7.0234755 -6.61988497 5.9109833 -4 3 C-1.75 1.1875 -1.75 1.1875 0 0 Z " fill="#8A9482" transform="translate(995,1074)"/>
<path d="M0 0 C0.66 0.33 1.32 0.66 2 1 C-0.31 3.64 -2.62 6.28 -5 9 C-5.66 8.67 -6.32 8.34 -7 8 C-4.69 5.36 -2.38 2.72 0 0 Z " fill="#889280" transform="translate(285,1100)"/>
<path d="M0 0 C-1.49097658 3.7952131 -3.75700849 5.61042731 -7 8 C-7 5 -7 5 -4.625 2.3125 C-2 0 -2 0 0 0 Z " fill="#D6DBD1" transform="translate(1366,1129)"/>
<path d="M0 0 C3.465 1.98 3.465 1.98 7 4 C7 4.66 7 5.32 7 6 C3.31245243 5.50168276 1.39509338 4.89932357 -1 2 C-0.67 1.34 -0.34 0.68 0 0 Z " fill="#BEC6B7" transform="translate(988,798)"/>
<path d="M0 0 C3.465 1.485 3.465 1.485 7 3 C7 3.66 7 4.32 7 5 C4.03 4.01 1.06 3.02 -2 2 C-1.34 1.34 -0.68 0.68 0 0 Z " fill="#B3BEAB" transform="translate(969,659)"/>
</svg>
